<svg width="100%" viewBox="0 0 498 206" fill="none" xmlns="http://www.w3.org/2000/svg">
<rect x="0.5" y="0.5" width="497" height="205" rx="9.5" stroke="var(--color-secondary)"/>
<path d="M21 21.8125C21 20.2592 22.2592 19 23.8125 19H48.1875C49.7408 19 51 20.2592 51 21.8125V46.1875C51 47.7408 49.7408 49 48.1875 49H23.8125C22.2592 49 21 47.7408 21 46.1875V21.8125Z" fill="var(--color-secondary)"/>
<path d="M42.5625 45.4375C41.75 45.4375 41.0375 45.275 40.425 44.95C39.825 44.625 39.3562 44.1687 39.0187 43.5812C38.6937 42.9812 38.5312 42.2875 38.5312 41.5V38.6875C38.5312 37.8875 38.6937 37.1937 39.0187 36.6062C39.3562 36.0187 39.825 35.5625 40.425 35.2375C41.0375 34.9125 41.75 34.75 42.5625 34.75C43.375 34.75 44.0812 34.9125 44.6812 35.2375C45.2937 35.5625 45.7625 36.0187 46.0875 36.6062C46.425 37.1937 46.5938 37.8875 46.5938 38.6875V40.5062H40.1813V41.5C40.1813 42.3125 40.3875 42.9375 40.8 43.375C41.2125 43.8 41.8 44.0125 42.5625 44.0125C43.2125 44.0125 43.7375 43.9 44.1375 43.675C44.5375 43.4375 44.7813 43.0875 44.8688 42.625H46.5562C46.4437 43.4875 46.0187 44.175 45.2812 44.6875C44.5563 45.1875 43.65 45.4375 42.5625 45.4375ZM44.9438 39.3813V38.6875C44.9438 37.875 44.7375 37.25 44.325 36.8125C43.925 36.375 43.3375 36.1562 42.5625 36.1562C41.8 36.1562 41.2125 36.375 40.8 36.8125C40.3875 37.25 40.1813 37.875 40.1813 38.6875V39.2313H45.075L44.9438 39.3813Z" fill="var(--color-background)"/>
<path d="M25.1346 45.25L26.3646 23.35H29.5146L28.4046 38.65C28.3846 38.99 28.3546 39.41 28.3146 39.91C28.2746 40.39 28.2246 40.88 28.1646 41.38C28.1046 41.88 28.0546 42.32 28.0146 42.7C28.1146 42.32 28.2146 41.88 28.3146 41.38C28.4346 40.88 28.5546 40.39 28.6746 39.91C28.8146 39.41 28.9346 38.99 29.0346 38.65L33.2646 23.35H36.5046L35.7546 38.65C35.7346 38.99 35.7146 39.41 35.6946 39.91C35.6746 40.39 35.6546 40.88 35.6346 41.38C35.6146 41.88 35.5946 42.32 35.5746 42.7C35.6546 42.32 35.7446 41.88 35.8446 41.38C35.9446 40.88 36.0446 40.39 36.1446 39.91C36.2646 39.41 36.3646 38.99 36.4446 38.65L40.1946 23.35H43.4046L37.5546 45.25H33.4146L34.1946 29.89C34.2146 29.51 34.2446 29.07 34.2846 28.57C34.3246 28.05 34.3646 27.54 34.4046 27.04C34.4446 26.52 34.4746 26.08 34.4946 25.72C34.4146 26.08 34.3146 26.52 34.1946 27.04C34.0746 27.54 33.9546 28.05 33.8346 28.57C33.7146 29.07 33.6046 29.51 33.5046 29.89L29.3046 45.25H25.1346Z" fill="var(--color-background)"/>
<path d="M43.5 45.4375C42.6875 45.4375 41.975 45.275 41.3625 44.95C40.7625 44.625 40.2937 44.1687 39.9562 43.5812C39.6312 42.9812 39.4688 42.2875 39.4688 41.5V38.6875C39.4688 37.8875 39.6312 37.1937 39.9562 36.6062C40.2937 36.0187 40.7625 35.5625 41.3625 35.2375C41.975 34.9125 42.6875 34.75 43.5 34.75C44.3125 34.75 45.0187 34.9125 45.6187 35.2375C46.2312 35.5625 46.7 36.0187 47.025 36.6062C47.3625 37.1937 47.5313 37.8875 47.5313 38.6875V40.5062H41.1188V41.5C41.1188 42.3125 41.325 42.9375 41.7375 43.375C42.15 43.8 42.7375 44.0125 43.5 44.0125C44.15 44.0125 44.675 43.9 45.075 43.675C45.475 43.4375 45.7188 43.0875 45.8063 42.625H47.4937C47.3812 43.4875 46.9562 44.175 46.2188 44.6875C45.4938 45.1875 44.5875 45.4375 43.5 45.4375ZM45.8813 39.3813V38.6875C45.8813 37.875 45.675 37.25 45.2625 36.8125C44.8625 36.375 44.275 36.1562 43.5 36.1562C42.7375 36.1562 42.15 36.375 41.7375 36.8125C41.325 37.25 41.1188 37.875 41.1188 38.6875V39.2313H46.0125L45.8813 39.3813Z" fill="var(--color-tertiary)"/>
<path d="M72.04 43.996V41.448H69.52V38.9H66.944V36.38H64.424V33.832H61.876V31.06H64.424V28.512H66.944V25.964H69.52V23.444H72.04V20.896H74.896V23.724H72.32V26.244H69.8V28.792H67.224V31.312H64.704V33.552H67.224V36.1H69.8V38.62H72.32V41.168H74.896V43.996H72.04ZM81.2971 41.336V38.816H78.7491V25.88H81.2971V23.332H89.1931V25.88H91.7691V31.2H88.9131V26.16H81.5771V38.536H88.9131V36.268H86.3931V33.72H83.8171V30.948H86.6731V33.44H91.7691V38.816H89.1931V41.336H81.2971ZM97.9833 41.336V38.816H95.4353V30.948H97.9833V28.4H105.879V30.948H108.455V38.536H111.003V41.336H108.175V38.816H105.879V41.336H97.9833ZM98.2633 38.536H105.599V31.2H98.2633V38.536ZM113.817 41.336V28.4H121.741V30.948H123.981V28.4H129.385V30.948H131.905V41.336H129.105V31.2H124.261V41.336H121.461V31.2H116.645V41.336H113.817ZM137.836 41.336V38.816H135.288V30.948H137.836V28.4H145.732V30.948H148.308V33.72H145.452V31.2H138.116V33.44H143.212V36.268H138.116V38.536H145.452V35.96H148.308V38.788H145.732V41.336H137.836ZM157.86 41.336V28.4H168.304V30.948H170.88V41.336H168.024V31.2H160.688V41.336H157.86ZM176.247 41.336V38.816H173.699V30.948H176.247V28.4H184.143V30.948H186.719V38.536H189.267V41.336H186.439V38.816H184.143V41.336H176.247ZM176.527 38.536H183.863V31.2H176.527V38.536ZM192.08 41.336V28.4H200.004V30.948H202.244V28.4H207.648V30.948H210.168V41.336H207.368V31.2H202.524V41.336H199.724V31.2H194.908V41.336H192.08ZM216.1 41.336V38.816H213.552V30.948H216.1V28.4H223.996V30.948H226.572V33.72H223.716V31.2H216.38V33.44H221.476V36.268H216.38V38.536H223.716V35.96H226.572V38.788H223.996V41.336H216.1ZM230.434 43.996V41.168H232.982V38.62H235.53V36.1H238.078V33.552H240.626V31.312H238.078V28.792H235.53V26.244H232.982V23.724H230.434V20.896H233.262V23.444H235.81V25.964H238.358V28.512H240.878V31.06H243.454V33.832H240.878V36.38H238.358V38.9H235.81V41.448H233.262V43.996H230.434Z" fill="var(--color-secondary)"/>
<path d="M250.44 41.288V30.2H252.864V38.888H256.992V30.2H259.392V38.888H263.544V30.2H265.944V39.128H263.784V41.288H259.152V39.128H257.232V41.288H250.44ZM268.118 41.288V30.2H270.542V41.288H268.118ZM268.118 28.28V25.856H270.542V28.28H268.118ZM272.719 41.288V25.856H275.143V34.52H277.063V32.384H281.431V30.2H283.879V32.6H281.671V34.76H277.303V36.704H281.671V38.888H283.879V41.288H281.431V39.128H277.063V36.944H275.143V41.288H272.719ZM286.061 41.288V30.2H288.485V41.288H286.061ZM286.061 28.28V25.856H288.485V28.28H286.061ZM290.662 41.288V38.888H299.374V36.944H292.846V34.76H290.662V32.384H292.846V30.2H301.822V32.6H293.086V34.52H299.614V36.704H301.822V39.128H299.614V41.288H290.662ZM312.433 44.84V40.424H310.273V36.104H308.089V31.52H310.273V27.152H312.433V22.832H314.881V27.392H312.673V31.76H310.513V35.864H312.673V40.256H314.881V44.84H312.433ZM317.065 41.288V30.2H326.017V32.384H328.225V41.288H325.777V32.6H319.489V41.288H317.065ZM332.843 41.288V39.128H330.659V30.2H333.083V38.888H339.371V30.2H341.819V39.128H339.611V41.288H332.843ZM344.722 41.288V30.2H351.514V32.384H353.434V30.2H358.066V32.384H360.226V41.288H357.826V32.6H353.674V41.288H351.274V32.6H347.146V41.288H344.722ZM362.4 44.84V40.256H364.584V35.864H366.768V31.76H364.584V27.392H362.4V22.832H364.824V27.152H367.008V31.52H369.192V36.104H367.008V40.424H364.824V44.84H362.4ZM372.097 39.056V36.632H374.521V39.056H372.097ZM372.097 34.784V32.384H374.521V34.784H372.097Z" fill="var(--color-secondary)"/>
<path d="M93.1793 136.194V134.328H91.3343V132.462H89.4483V130.617H87.6033V128.752H85.7378V126.722H87.6033V124.857H89.4483V122.991H91.3343V121.146H93.1793V119.281H95.2703V121.351H93.3843V123.196H91.5393V125.062H89.6533V126.907H87.8083V128.547H89.6533V130.412H91.5393V132.257H93.3843V134.123H95.2703V136.194H93.1793ZM98.8908 134.246V132.401H97.0253V130.33H99.0958V132.196H104.467V128.67H98.8908V126.825H97.0253V122.93H98.8908V121.064H104.672V122.93H106.558V124.98H104.467V123.135H99.0958V126.64H104.672V128.465H106.558V132.401H104.672V134.246H98.8908ZM109.421 134.246V132.401H107.555V126.64H109.421V124.775H115.202V126.64H117.088V132.196H118.953V134.246H116.883V132.401H115.202V134.246H109.421ZM109.626 132.196H114.997V126.825H109.626V132.196ZM119.947 134.246V124.775H125.749V126.64H127.389V124.775H131.345V126.64H133.19V134.246H131.14V126.825H127.594V134.246H125.544V126.825H122.018V134.246H119.947ZM136.467 134.246V132.401H134.601V126.64H136.467V124.775H142.248V126.64H144.134V128.67H142.043V126.825H136.672V128.465H140.403V130.535H136.672V132.196H142.043V130.31H144.134V132.38H142.248V134.246H136.467ZM150.861 137.957V136.112H148.995V134.062H151.066V135.907H156.457V132.401H150.861V130.535H148.995V126.64H150.861V124.775H156.662V126.64H158.528V136.112H156.662V137.957H150.861ZM151.066 130.33H156.457V126.825H151.066V130.33ZM161.391 134.246V132.401H159.525V126.64H161.391V124.775H167.172V126.64H169.058V132.196H170.923V134.246H168.853V132.401H167.172V134.246H161.391ZM161.596 132.196H166.967V126.825H161.596V132.196ZM171.917 134.246V124.775H177.719V126.64H179.359V124.775H183.315V126.64H185.16V134.246H183.11V126.825H179.564V134.246H177.514V126.825H173.988V134.246H171.917ZM188.437 134.246V132.401H186.571V126.64H188.437V124.775H194.218V126.64H196.104V128.67H194.013V126.825H188.642V128.465H192.373V130.535H188.642V132.196H194.013V130.31H196.104V132.38H194.218V134.246H188.437ZM202.831 134.246V132.401H200.965V126.64H202.831V124.775H208.612V126.64H210.498V132.401H208.612V134.246H202.831ZM203.036 132.196H208.407V126.825H203.036V132.196ZM215.826 134.246V132.401H213.981V126.825H212.116V124.775H213.981V121.064H216.031V124.775H221.648V126.825H216.031V132.196H221.443V130.33H223.514V132.401H221.648V134.246H215.826ZM224.728 134.246V121.064H226.798V126.64H228.438V124.775H232.374V126.64H234.26V134.246H232.169V126.825H228.643V128.67H226.798V134.246H224.728ZM237.344 134.246V132.401H235.478V126.64H237.344V124.775H243.125V126.64H245.011V128.67H242.92V126.825H237.549V128.465H241.28V130.535H237.549V132.196H242.92V130.31H245.011V132.38H243.125V134.246H237.344ZM246.629 134.246V126.64H248.495V124.775H254.276V126.64H256.162V128.67H254.071V126.825H248.7V134.246H246.629ZM262.888 134.246V132.401H261.023V121.064H263.093V132.196H264.733V128.465H266.619V122.93H268.669V128.465H270.555V132.196H272.216V121.064H274.266V132.401H272.421V134.246H270.35V132.401H268.464V128.67H266.824V132.401H264.938V134.246H262.888ZM275.877 134.246V124.775H277.948V134.246H275.877ZM275.877 123.135V121.064H277.948V123.135H275.877ZM279.56 134.246V121.064H281.631V128.465H283.271V126.64H287.002V124.775H289.093V126.825H287.207V128.67H283.476V130.33H287.207V132.196H289.093V134.246H287.002V132.401H283.271V130.535H281.631V134.246H279.56ZM290.711 134.246V124.775H292.782V134.246H290.711ZM290.711 123.135V121.064H292.782V123.135H290.711ZM297.638 134.246V132.196H305.079V130.535H299.503V128.67H297.638V126.64H299.503V124.775H307.17V126.825H299.708V128.465H305.284V130.33H307.17V132.401H305.284V134.246H297.638ZM310.253 134.246V132.401H308.388V126.64H310.253V124.775H316.034V126.64H317.92V132.401H316.034V134.246H310.253ZM310.458 132.196H315.829V126.825H310.458V132.196ZM321.404 134.246V132.401H319.539V124.775H321.609V132.196H326.98V124.775H329.071V132.401H327.185V134.246H321.404ZM330.489 134.246V126.64H332.355V124.775H338.136V126.64H340.022V128.67H337.931V126.825H332.56V134.246H330.489ZM343.105 134.246V132.401H341.24V126.64H343.105V124.775H348.886V126.64H350.772V128.67H348.681V126.825H343.31V132.196H348.681V130.33H350.772V132.401H348.886V134.246H343.105ZM353.635 134.246V132.401H351.77V126.64H353.635V124.775H359.416V126.64H361.302V128.67H359.211V126.825H353.84V128.465H357.571V130.535H353.84V132.196H359.211V130.31H361.302V132.38H359.416V134.246H353.635ZM366.163 134.246V124.775H373.81V126.64H375.696V134.246H373.605V126.825H368.234V134.246H366.163ZM378.559 134.246V132.401H376.694V126.64H378.559V124.775H384.34V126.64H386.226V132.196H388.092V134.246H386.021V132.401H384.34V134.246H378.559ZM378.764 132.196H384.135V126.825H378.764V132.196ZM389.085 134.246V124.775H394.887V126.64H396.527V124.775H400.483V126.64H402.328V134.246H400.278V126.825H396.732V134.246H394.682V126.825H391.156V134.246H389.085ZM405.605 134.246V132.401H403.74V126.64H405.605V124.775H411.386V126.64H413.272V128.67H411.181V126.825H405.81V128.465H409.541V130.535H405.81V132.196H411.181V130.31H413.272V132.38H411.386V134.246H405.605ZM415.034 136.194V134.123H416.899V132.257H418.765V130.412H420.63V128.547H422.496V126.907H420.63V125.062H418.765V123.196H416.899V121.351H415.034V119.281H417.104V121.146H418.97V122.991H420.835V124.857H422.68V126.722H424.566V128.752H422.68V130.617H420.835V132.462H418.97V134.328H417.104V136.194H415.034ZM426.321 132.339V130.269H428.392V132.339H426.321ZM426.321 128.69V126.64H428.392V128.69H426.321Z" fill="var(--color-secondary)"/>
<line x1="249" y1="153" x2="249" y2="193" stroke="var(--color-secondary)" stroke-width="2" stroke-dasharray="7 8"/>
<rect x="382.5" y="14.5" width="44" height="39" rx="6.5" stroke="var(--color-secondary)"/>
<rect x="432.5" y="14.5" width="44" height="39" rx="6.5" stroke="var(--color-secondary)"/>
<rect x="255.5" y="64.5" width="44" height="39" rx="6.5" stroke="var(--color-secondary)"/>
<rect x="200.5" y="64.5" width="44" height="39" rx="6.5" stroke="var(--color-secondary)"/>
<rect x="198.5" y="153.5" width="39" height="39" rx="6.5" stroke="var(--color-secondary)"/>
<rect x="260.5" y="153.5" width="39" height="39" rx="6.5" stroke="var(--color-secondary)"/>
<path d="M413 29C413 32.5638 409.941 35.5137 406 35.945V37C406 37.2652 405.895 37.5196 405.707 37.7071C405.52 37.8946 405.265 38 405 38C404.735 38 404.48 37.8946 404.293 37.7071C404.105 37.5196 404 37.2652 404 37V35C404 34.7348 404.105 34.4804 404.293 34.2929C404.48 34.1054 404.735 34 405 34C408.309 34 411 31.7575 411 29C411 26.2425 408.309 24 405 24C401.691 24 399 26.2425 399 29C399 29.2652 398.895 29.5196 398.707 29.7071C398.52 29.8946 398.265 30 398 30C397.735 30 397.48 29.8946 397.293 29.7071C397.105 29.5196 397 29.2652 397 29C397 25.14 400.589 22 405 22C409.411 22 413 25.14 413 29ZM405 41C404.604 41 404.218 41.1173 403.889 41.3371C403.56 41.5568 403.304 41.8692 403.152 42.2346C403.001 42.6001 402.961 43.0022 403.038 43.3902C403.116 43.7781 403.306 44.1345 403.586 44.4142C403.865 44.6939 404.222 44.8844 404.61 44.9616C404.998 45.0387 405.4 44.9991 405.765 44.8478C406.131 44.6964 406.443 44.44 406.663 44.1111C406.883 43.7822 407 43.3956 407 43C407 42.4696 406.789 41.9609 406.414 41.5858C406.039 41.2107 405.53 41 405 41Z" fill="var(--color-secondary)"/>
<path d="M231 79C231 82.5638 227.941 85.5137 224 85.945V87C224 87.2652 223.895 87.5196 223.707 87.7071C223.52 87.8946 223.265 88 223 88C222.735 88 222.48 87.8946 222.293 87.7071C222.105 87.5196 222 87.2652 222 87V85C222 84.7348 222.105 84.4804 222.293 84.2929C222.48 84.1054 222.735 84 223 84C226.309 84 229 81.7575 229 79C229 76.2425 226.309 74 223 74C219.691 74 217 76.2425 217 79C217 79.2652 216.895 79.5196 216.707 79.7071C216.52 79.8946 216.265 80 216 80C215.735 80 215.48 79.8946 215.293 79.7071C215.105 79.5196 215 79.2652 215 79C215 75.14 218.589 72 223 72C227.411 72 231 75.14 231 79ZM223 91C222.604 91 222.218 91.1173 221.889 91.3371C221.56 91.5568 221.304 91.8692 221.152 92.2346C221.001 92.6001 220.961 93.0022 221.038 93.3902C221.116 93.7781 221.306 94.1345 221.586 94.4142C221.865 94.6939 222.222 94.8844 222.61 94.9616C222.998 95.0387 223.4 94.9991 223.765 94.8478C224.131 94.6964 224.443 94.44 224.663 94.1111C224.883 93.7822 225 93.3956 225 93C225 92.4696 224.789 91.9609 224.414 91.5858C224.039 91.2107 223.53 91 223 91Z" fill="var(--color-secondary)"/>
<path d="M286 79C286 82.5638 282.941 85.5137 279 85.945V87C279 87.2652 278.895 87.5196 278.707 87.7071C278.52 87.8946 278.265 88 278 88C277.735 88 277.48 87.8946 277.293 87.7071C277.105 87.5196 277 87.2652 277 87V85C277 84.7348 277.105 84.4804 277.293 84.2929C277.48 84.1054 277.735 84 278 84C281.309 84 284 81.7575 284 79C284 76.2425 281.309 74 278 74C274.691 74 272 76.2425 272 79C272 79.2652 271.895 79.5196 271.707 79.7071C271.52 79.8946 271.265 80 271 80C270.735 80 270.48 79.8946 270.293 79.7071C270.105 79.5196 270 79.2652 270 79C270 75.14 273.589 72 278 72C282.411 72 286 75.14 286 79ZM278 91C277.604 91 277.218 91.1173 276.889 91.3371C276.56 91.5568 276.304 91.8692 276.152 92.2346C276.001 92.6001 275.961 93.0022 276.038 93.3902C276.116 93.7781 276.306 94.1345 276.586 94.4142C276.865 94.6939 277.222 94.8844 277.61 94.9616C277.998 95.0387 278.4 94.9991 278.765 94.8478C279.131 94.6964 279.443 94.44 279.663 94.1111C279.883 93.7822 280 93.3956 280 93C280 92.4696 279.789 91.9609 279.414 91.5858C279.039 91.2107 278.53 91 278 91Z" fill="var(--color-secondary)"/>
<path d="M226 168C226 171.564 222.941 174.514 219 174.945V176C219 176.265 218.895 176.52 218.707 176.707C218.52 176.895 218.265 177 218 177C217.735 177 217.48 176.895 217.293 176.707C217.105 176.52 217 176.265 217 176V174C217 173.735 217.105 173.48 217.293 173.293C217.48 173.105 217.735 173 218 173C221.309 173 224 170.757 224 168C224 165.243 221.309 163 218 163C214.691 163 212 165.243 212 168C212 168.265 211.895 168.52 211.707 168.707C211.52 168.895 211.265 169 211 169C210.735 169 210.48 168.895 210.293 168.707C210.105 168.52 210 168.265 210 168C210 164.14 213.589 161 218 161C222.411 161 226 164.14 226 168ZM218 180C217.604 180 217.218 180.117 216.889 180.337C216.56 180.557 216.304 180.869 216.152 181.235C216.001 181.6 215.961 182.002 216.038 182.39C216.116 182.778 216.306 183.135 216.586 183.414C216.865 183.694 217.222 183.884 217.61 183.962C217.998 184.039 218.4 183.999 218.765 183.848C219.131 183.696 219.443 183.44 219.663 183.111C219.883 182.782 220 182.396 220 182C220 181.47 219.789 180.961 219.414 180.586C219.039 180.211 218.53 180 218 180Z" fill="var(--color-secondary)"/>
<path d="M288 168C288 171.564 284.941 174.514 281 174.945V176C281 176.265 280.895 176.52 280.707 176.707C280.52 176.895 280.265 177 280 177C279.735 177 279.48 176.895 279.293 176.707C279.105 176.52 279 176.265 279 176V174C279 173.735 279.105 173.48 279.293 173.293C279.48 173.105 279.735 173 280 173C283.309 173 286 170.757 286 168C286 165.243 283.309 163 280 163C276.691 163 274 165.243 274 168C274 168.265 273.895 168.52 273.707 168.707C273.52 168.895 273.265 169 273 169C272.735 169 272.48 168.895 272.293 168.707C272.105 168.52 272 168.265 272 168C272 164.14 275.589 161 280 161C284.411 161 288 164.14 288 168ZM280 180C279.604 180 279.218 180.117 278.889 180.337C278.56 180.557 278.304 180.869 278.152 181.235C278.001 181.6 277.961 182.002 278.038 182.39C278.116 182.778 278.306 183.135 278.586 183.414C278.865 183.694 279.222 183.884 279.61 183.962C279.998 184.039 280.4 183.999 280.765 183.848C281.131 183.696 281.443 183.44 281.663 183.111C281.883 182.782 282 182.396 282 182C282 181.47 281.789 180.961 281.414 180.586C281.039 180.211 280.53 180 280 180Z" fill="var(--color-secondary)"/>
<path d="M463 29C463 32.5638 459.941 35.5137 456 35.945V37C456 37.2652 455.895 37.5196 455.707 37.7071C455.52 37.8946 455.265 38 455 38C454.735 38 454.48 37.8946 454.293 37.7071C454.105 37.5196 454 37.2652 454 37V35C454 34.7348 454.105 34.4804 454.293 34.2929C454.48 34.1054 454.735 34 455 34C458.309 34 461 31.7575 461 29C461 26.2425 458.309 24 455 24C451.691 24 449 26.2425 449 29C449 29.2652 448.895 29.5196 448.707 29.7071C448.52 29.8946 448.265 30 448 30C447.735 30 447.48 29.8946 447.293 29.7071C447.105 29.5196 447 29.2652 447 29C447 25.14 450.589 22 455 22C459.411 22 463 25.14 463 29ZM455 41C454.604 41 454.218 41.1173 453.889 41.3371C453.56 41.5568 453.304 41.8692 453.152 42.2346C453.001 42.6001 452.961 43.0022 453.038 43.3902C453.116 43.7781 453.306 44.1345 453.586 44.4142C453.865 44.6939 454.222 44.8844 454.61 44.9616C454.998 45.0387 455.4 44.9991 455.765 44.8478C456.131 44.6964 456.443 44.44 456.663 44.1111C456.883 43.7822 457 43.3956 457 43C457 42.4696 456.789 41.9609 456.414 41.5858C456.039 41.2107 455.53 41 455 41Z" fill="var(--color-secondary)"/>
<rect x="4.5" y="7.5" width="489" height="50" rx="9.5" stroke="var(--color-tertiary)" stroke-dasharray="16 16"/>
<rect x="4.5" y="60.5" width="489" height="50" rx="9.5" stroke="var(--color-tertiary)" stroke-dasharray="16 16"/>
<rect x="4.5" y="113.5" width="489" height="86" rx="9.5" stroke="var(--color-tertiary)" stroke-dasharray="31 31"/>
<path d="M9.30881 166.312V163.972H6.94281V161.346H9.56881V163.712H16.3808V159.24H9.30881V156.666H16.3808V152.22H9.56881V154.56H6.94281V151.96H9.30881V149.594H16.6408V151.96H19.0328V156.9H16.6408V158.98H19.0328V163.972H16.6408V166.312H9.30881Z" fill="var(--color-tertiary)"/>
<path d="M9.30881 95.312V92.972H6.94281V87.98H9.30881V85.666H16.3808V81.22H9.56881V83.56H6.94281V80.96H9.30881V78.594H16.6408V80.96H19.0328V85.9H16.6408V88.24H9.56881V92.712H16.3808V90.346H19.0328V92.972H16.6408V95.312H9.30881Z" fill="var(--color-tertiary)"/>
<path d="M14.5101 42.312V28.22H12.4301V30.56H9.80414V27.96H12.1701V25.594H14.7701V27.96H17.1621V42.312H14.5101Z" fill="var(--color-tertiary)"/>
</svg>
