<svg xmlns="http://www.w3.org/2000/svg" width="100%" fill="none" viewBox="0 0 498 206"><rect width="497" height="205" x=".5" y=".5" fill="var(--color-foreground)" stroke="var(--color-secondary)" rx="9.5"/><path fill="var(--color-secondary)" d="M21 21.813A2.813 2.813 0 0 1 23.813 19h24.375A2.813 2.813 0 0 1 51 21.813v24.375A2.813 2.813 0 0 1 48.188 49H23.812A2.813 2.813 0 0 1 21 46.188z"/><path fill="var(--color-background)" d="M42.563 45.438q-1.22 0-2.138-.488a3.53 3.53 0 0 1-1.406-1.369q-.488-.9-.488-2.081v-2.812q0-1.2.488-2.082a3.53 3.53 0 0 1 1.406-1.369q.919-.487 2.138-.487t2.118.487a3.38 3.38 0 0 1 1.407 1.37q.506.88.506 2.08v1.82H40.18v.993q0 1.22.619 1.875.619.638 1.763.638.974 0 1.575-.338.6-.356.73-1.05h1.688q-.168 1.293-1.275 2.063-1.087.75-2.718.75m2.38-6.057v-.694q0-1.218-.618-1.874-.6-.657-1.763-.657-1.144 0-1.762.657-.618.656-.619 1.874v.544h4.894z"/><path fill="var(--color-background)" d="m25.135 45.25 1.23-21.9h3.15l-1.11 15.3q-.03.51-.09 1.26-.06.72-.15 1.47t-.15 1.32q.15-.57.3-1.32.18-.75.36-1.47.21-.75.36-1.26l4.23-15.3h3.24l-.75 15.3q-.03.51-.06 1.26l-.06 1.47q-.03.75-.06 1.32.12-.57.27-1.32t.3-1.47l.3-1.26 3.75-15.3h3.21l-5.85 21.9h-4.14l.78-15.36q.03-.57.09-1.32l.12-1.53q.06-.78.09-1.32-.12.54-.3 1.32-.18.75-.36 1.53-.18.75-.33 1.32l-4.2 15.36z"/><path fill="var(--color-tertiary)" d="M43.5 45.438q-1.218 0-2.138-.488a3.53 3.53 0 0 1-1.406-1.369q-.487-.9-.487-2.081v-2.812q0-1.2.487-2.082a3.53 3.53 0 0 1 1.406-1.369q.919-.487 2.138-.487 1.22 0 2.119.487a3.38 3.38 0 0 1 1.406 1.37q.506.88.506 2.08v1.82H41.12v.993q0 1.22.618 1.875.619.638 1.763.638.975 0 1.575-.338.6-.356.731-1.05h1.688q-.17 1.293-1.275 2.063-1.088.75-2.719.75m2.381-6.057v-.694q0-1.218-.618-1.874-.6-.657-1.763-.657-1.144 0-1.763.657-.618.656-.618 1.874v.544h4.894z"/><path fill="var(--color-secondary)" d="M455.105 35.12c-1.092 2.239-2.586 5.27-3.329 6.638-.718 1.245-1.314 1.08-1.787.034-1.64-3.85-5.008-10.598-6.593-14.382-.293-.696-.514-1.144-.722-1.32q-.316-.26-1.309-.314-.366-.04-.365-.184v-.528l.061-.052c1.078-.006 6.301 0 6.301 0l.059.052v.503q0 .206-.262.204l-.658.036c-.566.034-.848.19-.848.506 0 .156.061.382.193.696 1.263 3.067 5.621 12.194 5.621 12.194l.159.053 2.813-5.575-.563-1.236-1.934-3.783s-.371-.758-.499-1.01c-.849-1.673-.831-1.76-1.688-1.875-.242-.027-.366-.058-.366-.172v-.543l.07-.052h5.008l.132.043v.523c0 .121-.089.173-.265.173l-.36.055c-.924.07-.771.441-.158 1.648l1.845 3.769 2.051-4.061c.342-.742.272-.928.13-1.098-.082-.097-.356-.255-.947-.278l-.235-.024a.27.27 0 0 1-.169-.06.17.17 0 0 1-.078-.149v-.495l.071-.052c1.455-.01 4.717 0 4.717 0l.069.052v.506c0 .14-.069.206-.226.206-.753.035-.912.11-1.193.509-.14.215-.438.682-.754 1.204l-2.684 4.952-.076.157 3.257 6.62.199.055 5.128-12.097c.18-.49.151-.837-.074-1.037-.23-.2-.404-.317-1-.342l-.49-.019a.3.3 0 0 1-.178-.052c-.05-.034-.084-.087-.084-.138v-.505l.069-.052h5.788l.048.052v.506c0 .138-.086.209-.244.209-.756.035-1.315.209-1.683.488-.367.295-.65.714-.859 1.237 0 0-4.717 10.73-6.33 14.3-.613 1.167-1.229 1.063-1.754-.036-.666-1.357-2.068-4.388-3.087-6.618zM64.228 41.336v-2.52H61.68v-2.828h2.828v2.548h7.336V33.72h-7.616V31.2H61.68v-5.32h2.548v-2.548h7.896v2.548H74.7v2.8h-2.856v-2.52h-7.336v4.788h7.616v2.492H74.7v5.376h-2.576v2.52zm18.085 0v-2.52h-2.52V31.2h-2.548v-2.8h2.548v-5.068h2.8V28.4h7.672v2.8h-7.672v7.336h7.392v-2.548h2.828v2.828h-2.548v2.52zm15.862 0v-2.52h-2.548v-7.868h2.548V28.4h7.896v2.548h2.576v7.588h2.548v2.8h-2.828v-2.52h-2.296v2.52zm.28-2.8h7.336V31.2h-7.336zm16.401 2.8V30.948h2.548V28.4h7.896v2.548h2.576v2.772h-2.856V31.2h-7.336v10.136zm18.387 0v-2.52h-2.548v-7.868h2.548V28.4h7.644v-5.068h2.828v15.484h-2.576v2.52zm.28-2.8h7.336V31.2h-7.336zm15.859 2.8v-2.52h-2.548v-7.868h2.548V28.4h7.896v2.548h2.576v2.772h-2.856V31.2h-7.336v2.24h5.096v2.828h-5.096v2.268h7.336V35.96h2.856v2.828h-2.576v2.548zm14.138 0V28.4h2.828v10.136h4.816V28.4h2.8v10.136h4.844V28.4h2.8v10.416h-2.52v2.52h-5.404v-2.52h-2.24v2.52zm32.698 0v-2.52h-2.52V33.72h-2.548V23.332h2.828V33.44h2.52v5.096h2.296V33.44h2.52V23.332h2.856V33.72h-2.576v5.096h-2.52v2.52zm13.046 0v-2.52h-2.548v-7.868h2.548V28.4h7.896v2.548h2.576v7.588h2.548v2.8h-2.828v-2.52h-2.296v2.52zm.28-2.8h7.336V31.2h-7.336zm15.553 2.8V23.332h2.828v18.004zm6.487 0V23.332h2.828v18.004zm8.488 0v-2.52h-2.548v-7.868h2.548V28.4h7.896v2.548h2.576v2.772h-2.856V31.2h-7.336v2.24h5.096v2.828h-5.096v2.268h7.336V35.96h2.856v2.828h-2.576v2.548zm16.687 5.068v-2.52h-2.548v-2.8h2.828v2.52h7.364v-4.788h-7.644v-2.548h-2.548V28.4h2.828v7.588h7.364V28.4h2.828v15.484h-2.548v2.52zM280.44 41.288V30.2h2.424v8.688h4.128V30.2h2.4v8.688h4.152V30.2h2.4v8.928h-2.16v2.16h-4.632v-2.16h-1.92v2.16zm17.678 0V30.2h2.424v11.088zm0-13.008v-2.424h2.424v2.424zm4.601 13.008V25.856h2.424v8.664h1.92v-2.136h4.368V30.2h2.448v2.4h-2.208v2.16h-4.368v1.944h4.368v2.184h2.208v2.4h-2.448v-2.16h-4.368v-2.184h-1.92v4.344zm13.342 0V30.2h2.424v11.088zm0-13.008v-2.424h2.424v2.424zm4.601 13.008v-2.4h8.712v-1.944h-6.528V34.76h-2.184v-2.376h2.184V30.2h8.976v2.4h-8.736v1.92h6.528v2.184h2.208v2.424h-2.208v2.16zm21.771 3.552v-4.416h-2.16v-4.32h-2.184V31.52h2.184v-4.368h2.16v-4.32h2.448v4.56h-2.208v4.368h-2.16v4.104h2.16v4.392h2.208v4.584zm6.816-3.552v-2.16h-2.184V28.04h2.184v-2.184h6.768v2.184h2.208v2.4h-2.448v-2.16h-6.288v4.104h6.528v2.136h2.208v4.608h-2.208v2.16zm.24-2.4h6.288V34.76h-6.288zm10.919 5.952v-4.584h2.184v-4.392h2.184V31.76h-2.184v-4.368h-2.184v-4.56h2.424v4.32h2.184v4.368h2.184v4.584h-2.184v4.32h-2.184v4.416zm9.696-5.784v-2.424h2.424v2.424zm0-4.272v-2.4h2.424v2.4zM74.096 134.246v-1.845H72.23v-2.071h2.07v1.866h5.371v-3.526h-5.576v-1.845H72.23v-3.895h1.865v-1.866h5.781v1.866h1.886v2.05h-2.09v-1.845H74.3v3.505h5.575v1.825h1.886v3.936h-1.886v1.845zm12.174 0v-1.845h-1.845v-5.576H82.56v-2.05h1.865v-3.711h2.05v3.711h5.617v2.05h-5.617v5.371h5.412v-1.866h2.07v2.071h-1.865v1.845zm10.547 0v-1.845h-1.865v-5.761h1.865v-1.865h5.781v1.865h1.886v5.556h1.866v2.05h-2.071v-1.845h-1.681v1.845zm.205-2.05h5.371v-5.371h-5.37zm10.942 2.05v-7.606h1.866v-1.865h5.781v1.865h1.886v2.03h-2.091v-1.845h-5.371v7.421zm12.396 0v-1.845h-1.866v-5.761h1.866v-1.865h5.596v-3.711h2.071v11.337h-1.886v1.845zm.205-2.05h5.371v-5.371h-5.371zm10.545 2.05v-1.845h-1.865v-5.761h1.865v-1.865h5.781v1.865h1.886v2.03h-2.091v-1.845h-5.371v1.64h3.731v2.07h-3.731v1.661h5.371v-1.886h2.091v2.07h-1.886v1.866zm9.286 0v-9.471h2.07v7.421h3.526v-7.421h2.05v7.421h3.547v-7.421h2.05v7.626h-1.845v1.845h-3.957v-1.845h-1.64v1.845zm21.807 0v-1.845h-1.845v-3.731h-1.865v-7.606h2.07v7.401h1.845v3.731h1.681v-3.731h1.845v-7.401h2.091v7.606h-1.886v3.731h-1.845v1.845zm8.485 0v-1.845h-1.865v-5.761h1.865v-1.865h5.781v1.865h1.886v5.556h1.866v2.05h-2.071v-1.845h-1.681v1.845zm.205-2.05h5.371v-5.371h-5.371zm10.322 2.05v-13.182h2.07v13.182zm3.683 0v-13.182h2.071v13.182zm5.149 0v-1.845h-1.866v-5.761h1.866v-1.865h5.781v1.865h1.886v2.03h-2.091v-1.845h-5.371v1.64h3.731v2.07h-3.731v1.661h5.371v-1.886h2.091v2.07h-1.886v1.866zm11.15 3.711v-1.845h-1.865v-2.05h2.07v1.845h5.392v-3.506h-5.597v-1.866h-1.865v-5.76h2.07v5.555h5.392v-5.555h2.07v11.337h-1.865v1.845zm14.394-3.711v-1.845h-1.865v-9.471h1.865v-1.866h5.781v1.866h1.886v2.05h-2.091v-1.845h-5.371v3.505h3.731v2.03h-3.731v3.526h5.371v-1.866h2.091v2.071h-1.886v1.845zm9.285 0v-2.05h1.866v-1.866h1.845v-1.66h-1.845v-1.845h-1.866v-2.05h2.071v1.865h1.845v1.825h1.681v-1.825h1.845v-1.865h2.091v2.05h-1.886v1.845h-1.845v1.66h1.845v1.866h1.886v2.05h-2.091v-1.845h-1.845v-1.866h-1.681v1.866h-1.845v1.845zm11.151 3.608V126.64h1.866v-1.865h5.781v1.865h1.886v5.761h-1.886v1.845h-5.576v3.608zm2.071-5.658h5.371v-5.371h-5.371zm10.945 2.05v-1.845h-1.865v-5.761h1.865v-1.865h5.781v1.865h1.886v5.556h1.866v2.05h-2.071v-1.845h-1.681v1.845zm.205-2.05h5.371v-5.371h-5.371zm10.322 2.05v-9.471h7.646v1.865h1.886v7.606h-2.091v-7.421h-5.371v7.421zm12.616 0v-1.845h-1.866v-5.761h1.866v-1.865h5.596v-3.711h2.071v11.337h-1.886v1.845zm.205-2.05h5.371v-5.371h-5.371zm10.545 2.05v-1.845h-1.866v-5.761h1.866v-1.865h5.781v1.865h1.886v2.03h-2.091v-1.845h-5.371v1.64h3.731v2.07h-3.731v1.661h5.371v-1.886h2.091v2.07h-1.886v1.866zm11.151 0v-1.845h-1.866v-5.761h1.866v-1.865h5.596v-3.711h2.071v11.337h-1.886v1.845zm.205-2.05h5.371v-5.371h-5.371zm12.323 2.05v-13.182h7.646v1.866h1.886v2.05h-2.091v-1.845h-5.371v3.505h3.731v2.03h-3.731v5.576zm10.974 0v-1.845h-1.865v-5.761h1.865v-1.865h5.781v1.865h1.886v5.556h1.866v2.05h-2.071v-1.845h-1.681v1.845zm.205-2.05h5.371v-5.371h-5.371zm10.321 2.05v-9.471h7.647v1.865h1.886v7.606h-2.091v-7.421h-5.371v7.421zm12.616 0v-1.845h-1.865v-5.761h1.865v-1.865h5.597v-3.711h2.07v11.337h-1.886v1.845zm.205-2.05h5.371v-5.371h-5.371zm10.546 2.05v-1.845h-1.866v-5.761h1.866v-1.865h5.781v1.865h1.886v5.761h-1.886v1.845zm.205-2.05h5.371v-5.371h-5.371zm9.08 2.05v-9.471h5.801v1.865h1.64v-1.865h3.957v1.865h1.845v7.606h-2.05v-7.421h-3.547v7.421h-2.05v-7.421h-3.526v7.421zm19.963 0v-1.845h-1.866v-11.337h2.071v11.132h1.64v-3.731h1.886v-5.535h2.05v5.535h1.886v3.731h1.66v-11.132h2.05v11.337h-1.845v1.845h-2.07v-1.845h-1.886v-3.731h-1.64v3.731h-1.886v1.845zm12.989 0v-9.471h2.07v9.471zm0-11.111v-2.071h2.07v2.071zm3.683 11.111v-13.182h2.07v7.401h1.64v-1.825h3.731v-1.865h2.091v2.05h-1.886v1.845h-3.731v1.66h3.731v1.866h1.886v2.05h-2.091v-1.845h-3.731v-1.866h-1.64v3.711zm11.151 0v-9.471h2.07v9.471zm0-11.111v-2.071h2.07v2.071zm3.683 11.111v-2.05h7.442v-1.661h-5.576v-1.865h-1.866v-2.03h1.866v-1.865h7.667v2.05h-7.462v1.64h5.576v1.865h1.886v2.071h-1.886v1.845zm11.151-1.907v-2.07h2.07v2.07zm0-3.649v-2.05h2.07v2.05zM209.777 162.183c-1.647.437-3.317 1.759-4.095 3.238-.395.762-3.317 9.716-3.599 11.039-.18.852-.056 2.286.271 3.239.97 2.768 3.486 4.493 6.565 4.493 2.132 0 3.509-.515 5.19-1.961 1.636-1.401 3.012-1.939 4.681-1.804 1.512.112 2.527.572 3.949 1.804 2.008 1.749 4.332 2.253 6.735 1.457a6.57 6.57 0 0 0 3.813-3.239c.598-1.188.767-2.039.699-3.373-.045-1.064-.124-1.345-1.579-5.771-.835-2.555-1.636-4.92-1.76-5.245-.553-1.378-1.658-2.589-3.035-3.306-1.274-.672-1.771-.751-4.636-.751-1.535 0-2.493.045-2.437.101.068.056.699.437 1.41.852.711.403 1.388.84 1.5.975.113.134.192.414.192.672 0 .538-.124.661-1.748 1.771l-1.241.84 2.222.056c2.144.056 2.223.067 2.505.325.349.325.304.213 1.996 5.391 1.467 4.505 1.523 4.774 1.004 5.323-.688.728-1.376.639-2.425-.28a18 18 0 0 0-1.343-1.054c-4.162-2.723-9.634-2.387-13.458.83-1.275 1.075-1.354 1.12-2.087 1.12-.383 0-.812-.078-1.004-.168-.383-.202-.778-.773-.778-1.143 0-.134.677-2.376 1.511-4.976 1.196-3.754 1.58-4.785 1.805-5.02.294-.292.316-.292 2.584-.37 1.252-.034 2.481-.123 2.73-.202.553-.168 2.933-1.513 3.226-1.827.237-.257.282-.717.09-1.12-.135-.303-2.222-1.558-3.136-1.894-.699-.258-5.37-.28-6.317-.022m17.824 1.826c.44.448.451.997.011 1.479-.541.606-1.511.426-1.827-.336-.452-1.098.958-1.984 1.816-1.143M272.938 69.01a.54.54 0 0 0-.588.294.5.5 0 0 0-.052.227v12.102l-4.384-4.356a.544.544 0 0 0-.825.08.52.52 0 0 0-.089.296V90.15a2.961 2.961 0 0 0 .876 2.104l5.707 5.675a3 3 0 0 0 2.116.873h4.175c.794 0 1.552-.313 2.114-.87l5.706-5.678a2.98 2.98 0 0 0 .874-2.104v-4.498a2.96 2.96 0 0 0-.875-2.103l-14.48-14.394a.54.54 0 0 0-.275-.145m1.903 15.524a.9.9 0 0 1 .635.26l2.31 2.298 2.305-2.297a.89.89 0 0 1 .978-.195.9.9 0 0 1 .291.195l1.65 1.64a.9.9 0 0 1 .265.63v1.747a.9.9 0 0 1-.262.63l-4.6 4.595a.9.9 0 0 1-.982.194.9.9 0 0 1-.292-.194l-4.585-4.594a.88.88 0 0 1-.261-.629v-1.748a.87.87 0 0 1 .263-.628l1.65-1.642a.9.9 0 0 1 .635-.262M275.938 158.01a.54.54 0 0 0-.588.294.5.5 0 0 0-.052.227v12.102l-4.384-4.356a.54.54 0 0 0-.431-.152.55.55 0 0 0-.394.232.52.52 0 0 0-.089.296v12.497a2.963 2.963 0 0 0 .876 2.104l5.707 5.675a3 3 0 0 0 2.116.873h4.175c.794 0 1.552-.313 2.114-.871l5.706-5.677a2.97 2.97 0 0 0 .874-2.104v-4.498a2.96 2.96 0 0 0-.875-2.103l-14.48-14.394a.54.54 0 0 0-.275-.145m1.903 15.524c.238 0 .467.094.635.261l2.31 2.297 2.305-2.297a.88.88 0 0 1 .635-.263.9.9 0 0 1 .634.263l1.65 1.64a.9.9 0 0 1 .265.631v1.746a.9.9 0 0 1-.262.631l-4.6 4.594a.903.903 0 0 1-1.274 0l-4.585-4.594a.88.88 0 0 1-.261-.629v-1.748a.87.87 0 0 1 .263-.628l1.65-1.642a.9.9 0 0 1 .635-.262M236.516 76.37l-2.906-2.835a1.946 1.946 0 0 0-2.736 0L219.65 84.548l-4.443-4.282a1.944 1.944 0 0 0-2.734.006l-2.907 2.887a1.92 1.92 0 0 0 0 2.72l8.673 8.66a1.94 1.94 0 0 0 1.37.565 1.95 1.95 0 0 0 1.371-.564l15.542-15.444a1.92 1.92 0 0 0 .417-2.102 1.9 1.9 0 0 0-.423-.625m-16.912 16.812-8.673-8.662 2.906-2.887.01.01 5.128 4.943a.974.974 0 0 0 1.355 0l11.921-11.69 2.899 2.84z"/><path stroke="var(--color-secondary)" stroke-dasharray="7 8" stroke-width="2" d="M249 153v40"/><rect width="44" height="39" x="382.5" y="14.5" stroke="var(--color-secondary)" rx="6.5"/><rect width="44" height="39" x="432.5" y="14.5" stroke="var(--color-secondary)" rx="6.5"/><path fill="var(--color-secondary)" d="M405.475 18c-8.087 0-14.725 2.863-15.449 6.52l8.622 1.613c.702-.218 1.501-.313 2.325-.313l4.044-2.406c-.048-.602.315-1.227 1.138-1.733 1.162-.745 2.98-1.155 4.82-1.155a11.2 11.2 0 0 1 3.633.53c2.712.914 3.318 2.67 1.38 3.922-1.235.793-3.221 1.202-5.183 1.155l-5.328 1.899c-.048.385-.314.747-.823 1.084-1.429.913-4.215 1.13-6.2.457-.872-.289-1.453-.723-1.696-1.155l-6.151-1.18c.557.867 1.453 1.661 2.616 2.36-2.011 1.154-3.223 2.596-3.223 4.16 0 1.539 1.162 2.96 3.125 4.113-1.963 1.134-3.125 2.553-3.125 4.092 0 3.777 6.927 6.833 15.5 6.833 8.55 0 15.5-3.056 15.5-6.833 0-1.54-1.163-2.96-3.125-4.09 1.962-1.154 3.125-2.574 3.125-4.113 0-1.564-1.212-3.031-3.245-4.186 2.01-1.227 3.22-2.743 3.22-4.38 0-3.968-6.95-7.193-15.5-7.193zm5.522 3.417c-1.259.023-2.469.289-3.244.793-1.332.866-.921 2.045.919 2.671s4.384.433 5.716-.433c1.333-.866.921-2.046-.92-2.646a8.3 8.3 0 0 0-2.471-.362zm.074.408c1.791 0 3.22.674 3.22 1.492s-1.429 1.491-3.22 1.491c-1.793 0-3.221-.673-3.221-1.49 0-.82 1.428-1.493 3.221-1.493m-10.101 4.451c-.387.025-.749.05-1.113.097l2.205.409c.319.06.61.147.856.258.245.11.441.243.576.389a.7.7 0 0 1 .209.46.68.68 0 0 1-.191.463c-.129.147-.319.281-.561.394a3.7 3.7 0 0 1-.845.265 5.4 5.4 0 0 1-1.002.096 5.4 5.4 0 0 1-1.006-.087l-2.154-.41c.243.217.581.41 1.041.576 1.55.53 3.73.362 4.844-.359 1.114-.722.775-1.732-.775-2.238-.629-.216-1.38-.313-2.083-.313zm15.428 3.995v2.236c0 2.647-4.892 4.789-10.898 4.789-6.031 0-10.898-2.143-10.898-4.789v-2.213c2.785 1.275 6.636 2.07 10.873 2.07 4.263 0 8.138-.795 10.947-2.093zm0 8.324v2.117c0 2.647-4.892 4.787-10.898 4.787-6.031 0-10.898-2.14-10.898-4.787v-2.117c2.81 1.226 6.636 1.973 10.898 1.973s8.112-.747 10.898-1.973"/><rect width="44" height="39" x="255.5" y="64.5" stroke="var(--color-secondary)" rx="6.5"/><rect width="44" height="39" x="200.5" y="64.5" stroke="var(--color-secondary)" rx="6.5"/><rect width="39" height="39" x="198.5" y="153.5" stroke="var(--color-secondary)" rx="6.5"/><rect width="39" height="39" x="260.5" y="153.5" stroke="var(--color-secondary)" rx="6.5"/></svg>
