<svg xmlns="http://www.w3.org/2000/svg" width="100%" fill="none" viewBox="0 0 1202 904"><path fill="var(--color-secondary)" d="M210.452 22.848c-14.467 0-26.329 11.065-27.452 25.127l14.767 6.05a7.82 7.82 0 0 1 4.39-1.342c.144 0 .287.009.431.013l6.569-9.43v-.133c0-5.68 4.656-10.3 10.386-10.3 5.726 0 10.387 4.624 10.387 10.306 0 5.683-4.661 10.302-10.387 10.302h-.241l-9.358 6.627c0 .118.01.239.01.362 0 4.268-3.479 7.731-7.783 7.731-3.754 0-6.925-2.67-7.648-6.208L183.95 57.61c3.274 11.467 13.891 19.875 26.502 19.875 15.215 0 27.548-12.232 27.548-27.319s-12.336-27.319-27.548-27.319M200.26 64.305l-3.381-1.39a5.83 5.83 0 0 0 3.016 2.846c2.978 1.228 6.413-.172 7.65-3.13a5.7 5.7 0 0 0 .012-4.437 5.8 5.8 0 0 0-3.162-3.148 5.9 5.9 0 0 0-4.311-.069l3.496 1.435c2.195.91 3.235 3.415 2.317 5.589-.912 2.178-3.439 3.21-5.637 2.304m26.208-21.18c0-3.783-3.107-6.863-6.922-6.863-3.823 0-6.922 3.08-6.922 6.864 0 3.79 3.099 6.864 6.922 6.864 3.818 0 6.922-3.074 6.922-6.864m-12.106-.01c0-2.851 2.325-5.16 5.2-5.16 2.867 0 5.202 2.309 5.202 5.16 0 2.847-2.335 5.156-5.202 5.156-2.877 0-5.2-2.309-5.2-5.157M257.819 141.753l-4.063 4.036a.4.4 0 0 1-.287.118.4.4 0 0 1-.287-.118l-4.063-4.036a.403.403 0 0 1 .287-.689c.108 0 .212.042.288.118l3.775 3.751 3.775-3.751a.411.411 0 0 1 .663.131.4.4 0 0 1 0 .309.4.4 0 0 1-.088.131M447.819 141.753l-4.063 4.036a.4.4 0 0 1-.287.118.4.4 0 0 1-.287-.118l-4.063-4.036a.403.403 0 0 1 .287-.689c.108 0 .212.042.288.118l3.775 3.751 3.775-3.751a.411.411 0 0 1 .663.131.4.4 0 0 1 0 .309.4.4 0 0 1-.088.131M577.819 141.753l-4.063 4.036a.4.4 0 0 1-.287.118.4.4 0 0 1-.287-.118l-4.063-4.036a.403.403 0 0 1 .287-.689c.108 0 .212.042.288.118l3.775 3.751 3.775-3.751a.411.411 0 0 1 .663.131.4.4 0 0 1 0 .309.4.4 0 0 1-.088.131M723.819 141.753l-4.063 4.036a.4.4 0 0 1-.287.118.4.4 0 0 1-.287-.118l-4.063-4.036a.403.403 0 0 1 .287-.689c.108 0 .212.042.288.118l3.775 3.751 3.775-3.751a.411.411 0 0 1 .663.131.4.4 0 0 1 0 .309.4.4 0 0 1-.088.131M895.819 141.753l-4.063 4.036a.4.4 0 0 1-.287.118.4.4 0 0 1-.287-.118l-4.063-4.036a.403.403 0 0 1 .287-.689c.108 0 .212.042.288.118l3.775 3.751 3.775-3.751a.411.411 0 0 1 .663.131.4.4 0 0 1 0 .309.4.4 0 0 1-.088.131M264.06 45.09q-.198-1.672-1.608-2.597-1.409-.925-3.456-.925-1.498 0-2.62.485-1.112.484-1.74 1.332a3.2 3.2 0 0 0-.616 1.926q0 .903.429 1.552.44.639 1.123 1.068.683.418 1.431.694.749.264 1.376.429l2.29.616q.88.232 1.96.639 1.09.408 2.08 1.112a5.7 5.7 0 0 1 1.651 1.783q.65 1.09.65 2.675 0 1.828-.958 3.303-.947 1.475-2.774 2.345-1.816.87-4.414.87-2.422 0-4.195-.782-1.761-.782-2.774-2.18-1.002-1.398-1.134-3.248h2.819q.11 1.277.858 2.114.76.826 1.916 1.233a7.8 7.8 0 0 0 2.51.396q1.563 0 2.807-.506 1.244-.518 1.97-1.431.727-.925.727-2.158 0-1.123-.628-1.827-.627-.705-1.651-1.145-1.023-.44-2.213-.77l-2.774-.793q-2.642-.76-4.183-2.169t-1.541-3.688q0-1.893 1.024-3.302 1.035-1.42 2.774-2.202 1.75-.793 3.908-.793 2.18 0 3.875.782 1.695.77 2.686 2.114a5.27 5.27 0 0 1 1.057 3.049zm6.516-3.214v-2.421h16.909v2.421h-7.09V62h-2.73V41.876zM292.008 62V39.455h13.607v2.421h-10.877v7.618h10.172v2.422h-10.172v7.662h11.053V62zm19.762 0h-2.862l8.279-22.545h2.818L328.283 62h-2.862l-6.737-18.979h-.176zm1.057-8.807h11.537v2.422h-11.537zm19.278-13.738h3.258l7.662 18.714h.265l7.661-18.714h3.259V62h-2.554V44.87h-.22L344.39 62h-2.466l-7.045-17.13h-.22V62h-2.554zM448.716 47.09a2.23 2.23 0 0 0-1.037-1.675q-.909-.597-2.23-.597-.967 0-1.69.313-.718.312-1.123.86a2.06 2.06 0 0 0-.397 1.242q0 .582.277 1.001.283.413.724.69.44.27.923.447.483.17.888.277l1.477.397q.569.15 1.265.412.702.264 1.342.718.646.447 1.065 1.15.42.703.419 1.726 0 1.179-.618 2.13-.61.953-1.789 1.514-1.173.56-2.848.56-1.563 0-2.706-.504-1.136-.503-1.79-1.406-.646-.902-.732-2.095h1.819q.07.824.554 1.364.49.532 1.235.795.753.256 1.62.256 1.008 0 1.811-.327.803-.334 1.271-.923.47-.597.469-1.392 0-.724-.405-1.18a3 3 0 0 0-1.065-.738 11 11 0 0 0-1.428-.497l-1.79-.511q-1.704-.49-2.699-1.4t-.994-2.379q0-1.221.661-2.13.667-.917 1.789-1.421 1.13-.51 2.522-.511 1.406 0 2.5.504 1.094.497 1.733 1.364a3.4 3.4 0 0 1 .681 1.967zm4.004-2.073v-1.562h10.909v1.562h-4.574V58h-1.761V45.017zm25.295 5.71q0 2.301-.831 3.978-.831 1.676-2.28 2.585t-3.31.909-3.31-.91q-1.448-.908-2.279-2.584t-.831-3.978q0-2.301.831-3.977t2.279-2.585q1.45-.91 3.31-.91t3.31.91q1.449.91 2.28 2.585.831 1.676.831 3.977m-1.705 0q0-1.89-.632-3.189-.625-1.3-1.698-1.967a4.4 4.4 0 0 0-2.386-.668q-1.321 0-2.393.668-1.066.667-1.698 1.967-.624 1.3-.625 3.19 0 1.889.625 3.188.632 1.3 1.698 1.968a4.43 4.43 0 0 0 2.393.667q1.321 0 2.386-.668 1.072-.667 1.698-1.967.632-1.3.632-3.189M480.976 58V43.455h4.915q1.704 0 2.798.582 1.093.575 1.62 1.584.525 1.008.525 2.294 0 1.285-.525 2.28-.526.994-1.613 1.562-1.086.561-2.777.561h-3.977v-1.59h3.921q1.164 0 1.875-.342.717-.34 1.037-.966.326-.631.326-1.505t-.326-1.527q-.327-.654-1.045-1.009-.717-.362-1.896-.362h-3.096V58zm6.847-6.534L491.402 58h-2.045l-3.523-6.534zM493.769 58V43.455h8.779v1.562h-7.017v4.915h6.562v1.562h-6.562v4.944h7.13V58zM185.409 149v-11.636h4.068q1.216 0 2.006.42.79.416 1.176 1.119.387.699.386 1.552 0 .75-.267 1.238a2.1 2.1 0 0 1-.693.773 3.2 3.2 0 0 1-.926.42V143q.534.034 1.074.375t.903.977q.364.637.364 1.557 0 .875-.398 1.574-.397.699-1.255 1.108t-2.233.409zm1.409-1.25h2.796q1.38 0 1.96-.534.585-.54.585-1.307 0-.59-.301-1.091a2.2 2.2 0 0 0-.858-.807q-.557-.306-1.318-.306h-2.864zm0-5.273h2.614q.636 0 1.148-.25.516-.25.818-.704.306-.455.307-1.068 0-.768-.535-1.302-.534-.539-1.693-.539h-2.659zm8.816 6.523v-8.727h1.295v1.318h.091q.239-.648.864-1.051a2.54 2.54 0 0 1 1.409-.404q.147 0 .369.006a6 6 0 0 1 .335.017v1.364a3 3 0 0 0-.312-.051 3 3 0 0 0-.506-.04q-.636 0-1.136.267-.495.262-.784.727-.285.46-.285 1.051V149zm9.232.182q-1.181 0-2.073-.563-.886-.562-1.387-1.574-.494-1.011-.494-2.363 0-1.364.494-2.381.5-1.017 1.387-1.579.892-.563 2.073-.563t2.069.563q.891.562 1.386 1.579.5 1.017.5 2.381 0 1.352-.5 2.363a3.77 3.77 0 0 1-1.386 1.574q-.887.563-2.069.563m0-1.205q.898 0 1.478-.46a2.7 2.7 0 0 0 .858-1.21q.278-.75.278-1.625 0-.876-.278-1.631a2.75 2.75 0 0 0-.858-1.221q-.58-.466-1.478-.466-.897 0-1.477.466-.579.465-.858 1.221a4.7 4.7 0 0 0-.278 1.631q0 .875.278 1.625.279.75.858 1.21.58.46 1.477.46m7.682 1.023-2.659-8.727h1.409l1.887 6.682h.091l1.863-6.682h1.432l1.841 6.659h.091l1.886-6.659h1.409L219.139 149h-1.318l-1.909-6.705h-.136l-1.91 6.705zm17.205-6.773-1.205.341a2.2 2.2 0 0 0-.335-.585 1.6 1.6 0 0 0-.591-.477q-.375-.188-.96-.188-.801 0-1.335.37-.53.363-.529.926 0 .5.364.789.363.291 1.136.483l1.296.319q1.17.284 1.744.869.574.579.574 1.494 0 .75-.432 1.341-.426.591-1.193.932-.767.34-1.784.341-1.335 0-2.21-.58-.876-.579-1.108-1.693l1.272-.318q.183.705.688 1.057.512.352 1.335.352.937 0 1.489-.398.557-.403.557-.966 0-.454-.319-.761-.317-.312-.977-.466l-1.454-.341q-1.2-.284-1.762-.88-.557-.603-.557-1.506 0-.739.415-1.307a2.8 2.8 0 0 1 1.142-.892q.727-.324 1.648-.324 1.296 0 2.034.568.744.569 1.057 1.5m5.836 6.955q-1.26 0-2.176-.557a3.74 3.74 0 0 1-1.403-1.568q-.489-1.012-.489-2.352 0-1.341.489-2.364.494-1.029 1.375-1.602.886-.58 2.068-.58.683 0 1.347.227.664.228 1.21.739.545.505.869 1.341.324.835.324 2.057v.568h-6.727v-1.159h5.363q0-.74-.295-1.318a2.2 2.2 0 0 0-.83-.915q-.534-.336-1.261-.335-.801 0-1.386.397a2.6 2.6 0 0 0-.892 1.023 3 3 0 0 0-.313 1.352v.773q0 .989.341 1.676.346.682.96 1.04.614.352 1.426.352.53 0 .955-.147.432-.154.744-.455.313-.307.483-.761l1.296.363q-.205.66-.688 1.159-.482.495-1.193.773a4.4 4.4 0 0 1-1.597.273M195.545 233.545q-.204-1.727-1.659-2.681-1.454-.955-3.568-.955-1.545 0-2.704.5-1.148.5-1.796 1.375a3.3 3.3 0 0 0-.636 1.989q0 .931.443 1.602.454.659 1.159 1.102.705.432 1.477.716.773.273 1.421.443l2.363.637q.91.239 2.023.659 1.125.42 2.148 1.148a5.84 5.84 0 0 1 1.704 1.84q.67 1.125.671 2.762 0 1.886-.989 3.409-.977 1.523-2.863 2.42-1.875.898-4.557.898-2.5 0-4.33-.807-1.818-.807-2.863-2.25-1.035-1.443-1.171-3.352h2.909q.114 1.318.887 2.182.783.852 1.977 1.273a8 8 0 0 0 2.591.409q1.613 0 2.898-.523 1.284-.534 2.034-1.477.75-.955.75-2.228 0-1.158-.648-1.886-.648-.727-1.705-1.182a18 18 0 0 0-2.284-.795l-2.863-.818q-2.728-.784-4.319-2.239t-1.59-3.807q0-1.954 1.056-3.409 1.068-1.466 2.864-2.273 1.807-.818 4.034-.818 2.25 0 4 .807 1.75.795 2.773 2.182a5.44 5.44 0 0 1 1.091 3.147zm14.907 0v2.273h-9.046v-2.273zm-6.409-4.181h2.681V246q0 1.137.33 1.705.34.556.864.75.534.181 1.125.181.442 0 .727-.045l.454-.091.546 2.409a6 6 0 0 1-.761.205q-.489.113-1.239.113-1.137 0-2.227-.488a4.4 4.4 0 0 1-1.796-1.489q-.704-1-.704-2.523zm15.579 22.045q-1.66 0-3.011-.625a5.16 5.16 0 0 1-2.148-1.829q-.795-1.205-.795-2.91 0-1.5.591-2.431a4.16 4.16 0 0 1 1.579-1.478 8.3 8.3 0 0 1 2.182-.795q1.205-.273 2.42-.432 1.591-.204 2.58-.307 1-.112 1.454-.375.466-.261.466-.909v-.091q0-1.681-.92-2.613-.91-.933-2.761-.932-1.921 0-3.012.841-1.09.84-1.534 1.795l-2.545-.909q.681-1.591 1.818-2.477a6.8 6.8 0 0 1 2.5-1.25 10.4 10.4 0 0 1 2.682-.364q.84 0 1.931.205a6.2 6.2 0 0 1 2.125.807q1.035.613 1.716 1.852.682 1.239.682 3.318V251h-2.682v-2.364h-.136q-.273.568-.909 1.216t-1.693 1.103q-1.057.454-2.58.454m.409-2.409q1.592 0 2.682-.625 1.103-.625 1.659-1.614a4.1 4.1 0 0 0 .568-2.079v-2.455q-.17.206-.75.375-.567.16-1.318.284-.738.114-1.443.205-.693.08-1.125.136-1.046.137-1.955.443-.897.296-1.454.898-.546.591-.546 1.614 0 1.398 1.035 2.113 1.045.705 2.647.705m12.486 2v-17.455h2.591v2.637h.182q.477-1.296 1.727-2.102 1.25-.807 2.818-.807.295 0 .739.011.443.012.67.034v2.727a9 9 0 0 0-.625-.102 6 6 0 0 0-1.011-.079q-1.273 0-2.273.534a4 4 0 0 0-1.568 1.454q-.568.921-.568 2.103V251zm17.966.364q-2.183 0-3.852-1.103-1.67-1.113-2.614-3.136-.943-2.034-.943-4.807 0-2.75.943-4.773.944-2.022 2.625-3.125 1.682-1.101 3.886-1.102 1.706 0 2.694.568 1 .558 1.522 1.273.534.705.83 1.159h.227v-8.591h2.682V251h-2.591v-2.682h-.318q-.295.477-.841 1.205-.546.715-1.557 1.284-1.011.557-2.693.557m.364-2.409q1.612 0 2.727-.841 1.113-.853 1.693-2.353.58-1.51.58-3.488 0-1.954-.569-3.421-.567-1.477-1.681-2.295-1.114-.83-2.75-.83-1.706 0-2.841.875-1.125.864-1.694 2.353-.556 1.476-.556 3.318 0 1.863.568 3.386.579 1.512 1.704 2.409 1.136.887 2.819.887m20.238 2.409q-2.523 0-4.352-1.114-1.818-1.125-2.807-3.136-.977-2.023-.977-4.705t.977-4.727q.989-2.057 2.75-3.205 1.773-1.158 4.136-1.159 1.364 0 2.694.455a6.7 6.7 0 0 1 2.42 1.477q1.09 1.011 1.739 2.682.648 1.67.647 4.113v1.137h-13.454v-2.318h10.727q0-1.478-.591-2.637a4.45 4.45 0 0 0-1.659-1.829q-1.068-.67-2.523-.671-1.602 0-2.772.796a5.2 5.2 0 0 0-1.784 2.045 6 6 0 0 0-.625 2.705v1.545q0 1.978.681 3.352.694 1.365 1.921 2.08 1.227.705 2.852.705 1.057 0 1.909-.296a4.1 4.1 0 0 0 1.489-.909q.625-.614.966-1.523l2.591.728a5.75 5.75 0 0 1-1.375 2.318q-.966.988-2.387 1.545-1.42.546-3.193.546m15.262-.364-5.319-17.455h2.819l3.772 13.364h.182l3.727-13.364h2.864l3.682 13.319h.182l3.772-13.319h2.819L299.528 251h-2.636l-3.818-13.409h-.273L288.983 251zm32.363-23.273 6.909 19.591h.273l6.909-19.591h2.955L327.21 251h-2.909l-8.545-23.273zm23.818 23.682q-1.659 0-3.011-.625a5.2 5.2 0 0 1-2.148-1.829q-.795-1.205-.795-2.91 0-1.5.591-2.431a4.17 4.17 0 0 1 1.579-1.478 8.3 8.3 0 0 1 2.182-.795q1.204-.273 2.421-.432 1.59-.204 2.579-.307 1-.112 1.455-.375.466-.261.466-.909v-.091q0-1.681-.921-2.613-.909-.933-2.761-.932-1.92 0-3.012.841-1.09.84-1.534 1.795l-2.545-.909q.681-1.591 1.818-2.477a6.8 6.8 0 0 1 2.5-1.25 10.4 10.4 0 0 1 2.682-.364q.84 0 1.932.205a6.2 6.2 0 0 1 2.125.807q1.034.613 1.716 1.852t.681 3.318V251h-2.681v-2.364h-.137q-.273.568-.909 1.216t-1.693 1.103q-1.057.454-2.58.454m.41-2.409q1.59 0 2.681-.625 1.102-.625 1.659-1.614a4.1 4.1 0 0 0 .569-2.079v-2.455q-.171.206-.75.375-.569.16-1.319.284-.738.114-1.443.205-.693.08-1.125.136-1.045.137-1.954.443-.899.296-1.455.898-.545.591-.545 1.614 0 1.398 1.034 2.113 1.045.705 2.648.705m15.167-21.273V251h-2.682v-23.273zm7.594 0V251h-2.682v-23.273zm12.23 23.637q-2.523 0-4.352-1.114-1.818-1.125-2.807-3.136-.977-2.023-.977-4.705t.977-4.727q.989-2.057 2.75-3.205 1.773-1.158 4.136-1.159 1.364 0 2.693.455a6.7 6.7 0 0 1 2.421 1.477q1.09 1.011 1.739 2.682.647 1.67.647 4.113v1.137h-13.454v-2.318h10.727q0-1.478-.591-2.637a4.45 4.45 0 0 0-1.659-1.829q-1.068-.67-2.523-.671-1.602 0-2.772.796a5.2 5.2 0 0 0-1.785 2.045 6 6 0 0 0-.625 2.705v1.545q0 1.978.682 3.352.694 1.365 1.921 2.08 1.227.705 2.852.705 1.057 0 1.909-.296a4.1 4.1 0 0 0 1.489-.909 4.15 4.15 0 0 0 .966-1.523l2.591.728a5.8 5.8 0 0 1-1.375 2.318q-.966.988-2.387 1.545-1.42.546-3.193.546m12.503 6.181q-.682 0-1.216-.113-.534-.103-.739-.205l.682-2.363q.977.25 1.727.181.75-.067 1.33-.67.591-.591 1.079-1.92l.5-1.364-6.454-17.546h2.909l4.818 13.91h.182l4.818-13.91h2.909l-7.409 20q-.5 1.353-1.238 2.239a4.65 4.65 0 0 1-1.716 1.33q-.967.431-2.182.431"/><path fill="var(--color-secondary)" d="M182.886 214h-1.477l4.273-11.636h1.454L191.409 214h-1.477l-3.477-9.795h-.091zm.546-4.545h5.954v1.25h-5.954zm10.949-7.091V214h-1.341v-11.636zm3.797 0V214h-1.341v-11.636zm10.478 15.091q-.97 0-1.67-.25a3.6 3.6 0 0 1-1.165-.648 3.5 3.5 0 0 1-.733-.852l1.068-.75q.182.238.46.545.279.312.762.54.489.233 1.278.233 1.057 0 1.745-.512.687-.511.687-1.602v-1.773h-.114a7 7 0 0 1-.42.591q-.267.347-.773.62-.5.267-1.352.267a3.65 3.65 0 0 1-1.898-.5q-.835-.501-1.324-1.455-.483-.954-.483-2.318 0-1.34.472-2.335.471-1 1.313-1.546.84-.55 1.943-.551.852 0 1.352.284.506.279.773.637.273.352.42.579h.137v-1.386h1.295v8.977q0 1.125-.511 1.83-.506.71-1.364 1.039a5.1 5.1 0 0 1-1.898.336m-.045-4.796q.807 0 1.363-.369.558-.37.847-1.063.29-.693.29-1.659 0-.944-.284-1.665-.285-.722-.841-1.13-.557-.41-1.375-.409-.852 0-1.421.431a2.63 2.63 0 0 0-.846 1.16 4.5 4.5 0 0 0-.279 1.613q0 .909.284 1.608.29.693.853 1.091.567.392 1.409.392m8.841 1.546a3.55 3.55 0 0 1-1.506-.313 2.6 2.6 0 0 1-1.074-.915q-.398-.602-.398-1.454 0-.75.296-1.216.295-.472.79-.739.494-.266 1.091-.398.601-.135 1.21-.215.795-.103 1.29-.154.5-.057.727-.187.233-.13.233-.455v-.045q0-.842-.46-1.307-.455-.466-1.381-.466-.96 0-1.506.42-.545.421-.767.898l-1.273-.454q.342-.796.91-1.239a3.4 3.4 0 0 1 1.25-.625 5.2 5.2 0 0 1 1.34-.182q.422 0 .966.102.552.097 1.063.404.517.306.858.926t.341 1.659V214h-1.341v-1.182h-.068a2.4 2.4 0 0 1-.455.608q-.318.324-.847.551t-1.289.228m.204-1.205q.797 0 1.341-.312.551-.314.83-.807.284-.494.284-1.04v-1.227q-.085.102-.375.187-.285.08-.659.142-.37.057-.722.102-.346.04-.562.069a5 5 0 0 0-.978.221 1.7 1.7 0 0 0-.727.449q-.273.296-.273.807 0 .699.517 1.057.523.352 1.324.352m6.243 1v-8.727h1.296v1.363h.113q.273-.698.881-1.085.608-.392 1.46-.392.864 0 1.438.392.579.387.903 1.085h.091a2.55 2.55 0 0 1 1.006-1.074q.67-.402 1.608-.403 1.17 0 1.914.733.745.728.745 2.267V214h-1.341v-5.841q0-.966-.529-1.381a1.96 1.96 0 0 0-1.244-.414q-.92 0-1.426.556-.506.552-.506 1.398V214h-1.363v-5.977q0-.744-.483-1.199-.483-.46-1.245-.46-.522 0-.977.278a2.1 2.1 0 0 0-.727.773 2.3 2.3 0 0 0-.273 1.13V214zm17.565.182q-1.26 0-2.176-.557a3.74 3.74 0 0 1-1.403-1.568q-.489-1.012-.489-2.352 0-1.341.489-2.364.494-1.029 1.375-1.602.886-.58 2.068-.58.683 0 1.347.227.664.228 1.21.739.545.505.869 1.341.324.835.324 2.057v.568h-6.727v-1.159h5.363q0-.74-.295-1.318a2.2 2.2 0 0 0-.83-.915q-.534-.336-1.261-.335-.801 0-1.386.397a2.6 2.6 0 0 0-.892 1.023 3 3 0 0 0-.313 1.352v.773q0 .989.341 1.676.346.682.96 1.04.614.352 1.426.352.53 0 .955-.147.432-.154.744-.455.313-.307.483-.761l1.296.363q-.205.66-.688 1.159-.482.495-1.193.773a4.4 4.4 0 0 1-1.597.273m11.836-6.955-1.205.341a2.2 2.2 0 0 0-.335-.585 1.6 1.6 0 0 0-.591-.477q-.375-.188-.96-.188-.801 0-1.335.37-.53.363-.529.926 0 .5.364.789.363.291 1.136.483l1.296.319q1.17.284 1.744.869.574.579.574 1.494 0 .75-.432 1.341-.426.591-1.193.932-.768.34-1.784.341-1.335 0-2.211-.58-.874-.579-1.107-1.693l1.272-.318q.182.705.688 1.057.511.352 1.335.352.937 0 1.489-.398.556-.403.556-.966 0-.454-.318-.761-.318-.312-.977-.466l-1.455-.341q-1.199-.284-1.761-.88-.557-.603-.557-1.506 0-.739.415-1.307a2.8 2.8 0 0 1 1.142-.892q.727-.324 1.648-.324 1.294 0 2.034.568a3.07 3.07 0 0 1 1.057 1.5M271.642 203.091V214h-1.321v-10.909zm3.735 5.987V214h-1.257v-8.182h1.215v1.279h.106q.288-.624.874-1.002.586-.383 1.513-.383.83 0 1.454.341.623.335.969 1.022.347.682.347 1.726V214h-1.258v-5.114q0-.963-.5-1.502-.5-.543-1.375-.543-.601 0-1.076.261a1.87 1.87 0 0 0-.74.762q-.272.5-.272 1.214m10.607 5.092q-1.023 0-1.806-.516-.783-.522-1.225-1.47-.442-.954-.442-2.254 0-1.289.442-2.237t1.231-1.465q.788-.516 1.822-.516.798 0 1.262.266.468.261.714.597.25.33.389.543h.106v-4.027h1.257V214h-1.214v-1.257h-.149a8 8 0 0 1-.395.565q-.255.335-.729.601-.474.261-1.263.261m.171-1.129q.756 0 1.278-.394.522-.4.794-1.103.271-.708.271-1.635 0-.916-.266-1.603-.266-.693-.788-1.076-.522-.389-1.289-.389-.8 0-1.332.41-.527.405-.794 1.103a4.4 4.4 0 0 0-.261 1.555q0 .874.267 1.587.271.709.799 1.13.532.415 1.321.415m6.056.959v-8.182h1.257V214zm.639-9.545a.9.9 0 0 1-.634-.251.8.8 0 0 1-.261-.602q0-.351.261-.602a.9.9 0 0 1 .634-.25q.368 0 .629.25a.8.8 0 0 1 .266.602.8.8 0 0 1-.266.602.88.88 0 0 1-.629.251m6.351 9.715q-1.182 0-2.04-.522a3.5 3.5 0 0 1-1.316-1.47q-.458-.948-.458-2.205t.458-2.216q.464-.964 1.289-1.502.832-.543 1.939-.543.639 0 1.263.213t1.134.692q.512.474.815 1.257.304.783.304 1.929v.532h-6.307v-1.086h5.028q0-.693-.277-1.236a2.1 2.1 0 0 0-.777-.858q-.5-.314-1.183-.314-.75 0-1.299.373a2.45 2.45 0 0 0-.837.959 2.8 2.8 0 0 0-.293 1.267v.725q0 .926.32 1.571.325.639.9.975.575.33 1.337.33.495 0 .895-.138.404-.144.698-.426a1.95 1.95 0 0 0 .453-.714l1.214.341a2.7 2.7 0 0 1-.645 1.086 3.1 3.1 0 0 1-1.118.725 4.2 4.2 0 0 1-1.497.255m17.147-7.67a3.8 3.8 0 0 0-.464-.964 3 3 0 0 0-.676-.735 2.8 2.8 0 0 0-.884-.464 3.6 3.6 0 0 0-1.087-.159q-.97 0-1.763.5-.793.501-1.263 1.476-.468.975-.468 2.391 0 1.417.474 2.392t1.283 1.476a3.4 3.4 0 0 0 1.822.5q.938 0 1.651-.399.72-.405 1.119-1.14.405-.74.405-1.742l.405.085h-3.282v-1.172h4.155v1.172q0 1.348-.575 2.344a4 4 0 0 1-1.577 1.545q-1 .543-2.301.543-1.449 0-2.546-.682-1.092-.681-1.705-1.939-.606-1.257-.607-2.983 0-1.293.346-2.327.352-1.039.991-1.769a4.3 4.3 0 0 1 1.513-1.118 4.7 4.7 0 0 1 1.923-.389q.862 0 1.609.261.75.255 1.337.73.59.469.985 1.123.394.65.543 1.444zm5.927 7.692q-.777 0-1.412-.293a2.4 2.4 0 0 1-1.006-.858q-.373-.565-.373-1.363 0-.703.277-1.14.276-.442.74-.693a4 4 0 0 1 1.023-.373q.564-.127 1.135-.202.745-.096 1.209-.144.468-.053.682-.176.218-.122.218-.426v-.042q0-.788-.432-1.226-.426-.436-1.294-.436-.9 0-1.411.394-.512.394-.72.841l-1.193-.426q.32-.745.852-1.161.539-.421 1.172-.586.64-.17 1.257-.17.394 0 .906.096.516.09.996.378.485.287.804.868t.32 1.555V214h-1.257v-1.108h-.064a2.2 2.2 0 0 1-.426.57 2.5 2.5 0 0 1-.794.517q-.495.213-1.209.213m.192-1.13q.745 0 1.257-.292.517-.294.778-.757.266-.463.266-.975v-1.15q-.08.096-.352.176a6 6 0 0 1-.618.133q-.346.053-.676.096-.325.037-.527.064a4.8 4.8 0 0 0-.917.207q-.42.14-.681.421-.256.278-.256.756 0 .656.485.991.49.33 1.241.33m5.853.938v-8.182h1.214v1.279h.107q.255-.655.825-1.018.57-.367 1.369-.367.81 0 1.348.367.543.363.847 1.018h.085q.314-.635.943-1.007.628-.378 1.507-.378 1.098 0 1.795.687.698.681.698 2.125V214h-1.257v-5.476q0-.906-.495-1.294a1.84 1.84 0 0 0-1.167-.389q-.863 0-1.337.522-.474.516-.474 1.31V214h-1.278v-5.604q0-.698-.453-1.124-.453-.43-1.167-.431-.49 0-.916.261-.42.26-.682.724-.255.459-.255 1.06V214zm16.467.17q-1.182 0-2.04-.522a3.5 3.5 0 0 1-1.316-1.47q-.458-.948-.458-2.205t.458-2.216q.464-.964 1.289-1.502.832-.543 1.939-.543.639 0 1.263.213t1.134.692q.512.474.815 1.257.304.783.304 1.929v.532h-6.307v-1.086h5.028q0-.693-.277-1.236a2.1 2.1 0 0 0-.777-.858q-.5-.314-1.183-.314-.751 0-1.3.373a2.45 2.45 0 0 0-.836.959 2.8 2.8 0 0 0-.293 1.267v.725q0 .926.32 1.571.324.639.9.975.575.33 1.337.33.495 0 .895-.138.404-.144.698-.426.293-.288.452-.714l1.215.341a2.7 2.7 0 0 1-.645 1.086 3.1 3.1 0 0 1-1.118.725 4.2 4.2 0 0 1-1.497.255m11.096-6.519-1.13.319a2 2 0 0 0-.314-.548 1.5 1.5 0 0 0-.554-.448q-.351-.176-.9-.176-.751 0-1.252.347-.495.34-.495.868 0 .468.341.74.34.272 1.065.453l1.214.298q1.098.267 1.636.815.537.543.538 1.401 0 .704-.405 1.257-.399.555-1.119.874-.719.32-1.672.319-1.253 0-2.072-.543-.821-.543-1.039-1.587l1.193-.299q.171.661.645.991.478.33 1.251.33.88 0 1.396-.372.522-.379.522-.906a.95.95 0 0 0-.298-.714q-.299-.293-.917-.436l-1.363-.32q-1.124-.267-1.651-.826-.522-.565-.522-1.411 0-.693.388-1.225.394-.533 1.071-.837.682-.303 1.545-.303 1.214 0 1.907.532.697.532.991 1.407M380.287 205.818a1.67 1.67 0 0 0-.778-1.257q-.682-.447-1.672-.447-.725 0-1.268.234a2 2 0 0 0-.842.645 1.54 1.54 0 0 0-.298.932q0 .436.208.751.213.309.543.516.33.202.693.336.362.128.665.208l1.108.298q.426.113.948.309.528.197 1.007.538.485.335.799.863t.314 1.294q0 .885-.463 1.598-.458.714-1.342 1.135-.879.42-2.136.421-1.173 0-2.03-.378-.852-.379-1.342-1.055a3 3 0 0 1-.549-1.571h1.364q.053.617.415 1.022.367.4.927.597a3.8 3.8 0 0 0 1.215.192 3.6 3.6 0 0 0 1.358-.245q.601-.25.954-.693.351-.447.351-1.044 0-.543-.304-.884a2.2 2.2 0 0 0-.799-.554 8 8 0 0 0-1.07-.373l-1.343-.384q-1.278-.367-2.024-1.049-.745-.681-.745-1.784 0-.917.495-1.598a3.3 3.3 0 0 1 1.342-1.066q.847-.383 1.891-.383 1.055 0 1.875.378.82.373 1.3 1.023.485.65.511 1.475zm6.987 0v1.066h-4.24v-1.066zm-3.004-1.96h1.257v7.798q0 .533.155.799a.8.8 0 0 0 .404.352q.25.085.528.085.207 0 .341-.021l.213-.043.255 1.129a2.5 2.5 0 0 1-.357.096 2.6 2.6 0 0 1-.58.054q-.532 0-1.044-.23a2.07 2.07 0 0 1-.842-.697q-.33-.47-.33-1.183zm7.303 10.334q-.778 0-1.412-.293a2.4 2.4 0 0 1-1.006-.858q-.373-.565-.373-1.363 0-.703.277-1.14.276-.442.74-.693a4 4 0 0 1 1.023-.373q.564-.127 1.134-.202a52 52 0 0 1 1.21-.144q.468-.053.681-.176.219-.122.219-.426v-.042q0-.788-.432-1.226-.426-.436-1.294-.436-.9 0-1.412.394t-.719.841l-1.193-.426q.32-.745.852-1.161.539-.421 1.172-.586.639-.17 1.257-.17.394 0 .906.096.516.09.996.378.485.287.804.868t.32 1.555V214h-1.257v-1.108h-.064a2.2 2.2 0 0 1-.426.57 2.5 2.5 0 0 1-.794.517q-.495.213-1.209.213m.192-1.13q.745 0 1.257-.292a2 2 0 0 0 1.044-1.732v-1.15q-.08.096-.352.176a6 6 0 0 1-.618.133q-.346.053-.676.096-.325.037-.528.064a4.8 4.8 0 0 0-.916.207q-.42.14-.682.421-.255.278-.255.756 0 .656.485.991.49.33 1.241.33m5.852.938v-8.182h1.215v1.236h.085a1.96 1.96 0 0 1 .81-.985q.586-.38 1.321-.379a12 12 0 0 1 .66.022v1.278a3 3 0 0 0-.293-.048 3 3 0 0 0-.474-.037q-.596 0-1.065.25a1.834 1.834 0 0 0-1.002 1.667V214zm8.422.17q-1.023 0-1.806-.516-.783-.522-1.225-1.47-.442-.954-.442-2.254 0-1.289.442-2.237t1.23-1.465q.789-.516 1.822-.516.8 0 1.263.266.468.261.713.597.25.33.389.543h.107v-4.027h1.257V214h-1.215v-1.257h-.149a8 8 0 0 1-.394.565q-.255.335-.73.601-.474.261-1.262.261m.17-1.129q.757 0 1.279-.394.522-.4.793-1.103.273-.708.272-1.635 0-.916-.266-1.603-.267-.693-.789-1.076-.522-.389-1.289-.389-.798 0-1.331.41-.527.405-.794 1.103a4.4 4.4 0 0 0-.261 1.555q0 .874.266 1.587.272.709.799 1.13.533.415 1.321.415m9.487 1.129q-1.182 0-2.04-.522a3.5 3.5 0 0 1-1.316-1.47q-.458-.948-.458-2.205t.458-2.216q.464-.964 1.289-1.502.832-.543 1.939-.543.639 0 1.263.213t1.134.692q.512.474.815 1.257.304.783.304 1.929v.532h-6.307v-1.086h5.029a2.7 2.7 0 0 0-.277-1.236 2.1 2.1 0 0 0-.778-.858q-.5-.314-1.183-.314-.75 0-1.299.373a2.45 2.45 0 0 0-.837.959 2.8 2.8 0 0 0-.293 1.267v.725q0 .926.32 1.571.325.639.9.975.576.33 1.337.33.495 0 .895-.138.405-.144.698-.426a1.95 1.95 0 0 0 .453-.714l1.214.341a2.7 2.7 0 0 1-.644 1.086 3.14 3.14 0 0 1-1.119.725 4.2 4.2 0 0 1-1.497.255m7.154-.17-2.493-8.182h1.321l1.769 6.264h.085l1.747-6.264h1.342l1.726 6.243h.085l1.769-6.243h1.321L429.029 214h-1.236l-1.79-6.286h-.127l-1.79 6.286zm15.17-10.909 3.239 9.183h.128l3.239-9.183h1.384L442.005 214h-1.364l-4.006-10.909zm11.165 11.101q-.777 0-1.411-.293a2.4 2.4 0 0 1-1.007-.858q-.373-.565-.373-1.363 0-.703.277-1.14.277-.442.74-.693a4 4 0 0 1 1.023-.373 13 13 0 0 1 1.135-.202q.745-.096 1.209-.144.469-.053.682-.176.218-.122.218-.426v-.042q0-.788-.431-1.226-.426-.436-1.295-.436-.9 0-1.411.394-.512.394-.719.841l-1.194-.426q.32-.745.853-1.161a3.2 3.2 0 0 1 1.172-.586q.639-.17 1.257-.17.393 0 .905.096.518.09.996.378.485.287.805.868t.319 1.555V214h-1.257v-1.108h-.064a2.2 2.2 0 0 1-.426.57 2.5 2.5 0 0 1-.794.517q-.495.213-1.209.213m.192-1.13q.745 0 1.257-.292a2 2 0 0 0 1.044-1.732v-1.15q-.08.096-.351.176a6 6 0 0 1-.618.133q-.347.053-.677.096a24 24 0 0 0-.527.064 4.7 4.7 0 0 0-.916.207 1.6 1.6 0 0 0-.682.421q-.256.278-.256.756 0 .656.485.991.49.33 1.241.33m7.11-9.971V214h-1.257v-10.909zm3.559 0V214h-1.257v-10.909zm5.733 11.079q-1.182 0-2.04-.522a3.5 3.5 0 0 1-1.316-1.47q-.458-.948-.458-2.205t.458-2.216q.464-.964 1.289-1.502.831-.543 1.939-.543.64 0 1.263.213t1.134.692q.512.474.815 1.257.304.783.304 1.929v.532h-6.307v-1.086h5.029a2.7 2.7 0 0 0-.277-1.236 2.1 2.1 0 0 0-.778-.858q-.5-.314-1.183-.314-.75 0-1.299.373a2.45 2.45 0 0 0-.837.959 2.8 2.8 0 0 0-.293 1.267v.725q0 .926.32 1.571.325.639.9.975.576.33 1.337.33.496 0 .895-.138.405-.144.698-.426a1.95 1.95 0 0 0 .453-.714l1.214.341a2.7 2.7 0 0 1-.644 1.086 3.14 3.14 0 0 1-1.119.725 4.2 4.2 0 0 1-1.497.255m5.861 2.898q-.32 0-.57-.053a1.5 1.5 0 0 1-.346-.096l.319-1.108q.459.117.81.085a.97.97 0 0 0 .623-.314q.278-.278.506-.9l.235-.639-3.026-8.225h1.364l2.258 6.52h.085l2.259-6.52h1.364l-3.473 9.375q-.235.635-.581 1.05-.346.42-.804.623a2.5 2.5 0 0 1-1.023.202"/><path fill="var(--color-secondary)" stroke="var(--color-secondary)" stroke-width=".125" d="M259.406 204.704c.099 0 .191.024.255.064l4.063 2.483a.2.2 0 0 1 .069.063q.02.031.02.06a.1.1 0 0 1-.02.06.2.2 0 0 1-.069.062l-4.063 2.484a.54.54 0 0 1-.255.063.5.5 0 0 1-.255-.063.2.2 0 0 1-.068-.063.1.1 0 0 1-.021-.059q0-.029.021-.061a.2.2 0 0 1 .068-.063l3.776-2.307.088-.053-.088-.054-3.776-2.307c-.065-.04-.089-.087-.089-.123.001-.037.025-.083.089-.122a.5.5 0 0 1 .255-.064ZM363.406 204.704c.099 0 .191.024.255.064l4.063 2.483a.2.2 0 0 1 .069.063q.02.031.02.06a.1.1 0 0 1-.02.06.2.2 0 0 1-.069.062l-4.063 2.484a.54.54 0 0 1-.255.063.5.5 0 0 1-.255-.063.2.2 0 0 1-.068-.063.1.1 0 0 1-.021-.059q0-.029.021-.061a.2.2 0 0 1 .068-.063l3.776-2.307.088-.053-.088-.054-3.776-2.307c-.065-.04-.089-.087-.089-.123.001-.037.025-.083.089-.122a.5.5 0 0 1 .255-.064Z"/><path fill="var(--color-secondary)" d="M289.409 149v-11.636h3.932q1.363 0 2.239.466.875.46 1.295 1.267t.42 1.835-.42 1.824q-.42.795-1.29 1.25-.869.449-2.221.449h-3.182v-1.273h3.136q.931 0 1.5-.273.574-.272.83-.773.261-.505.261-1.204t-.261-1.222a1.8 1.8 0 0 0-.836-.807q-.573-.29-1.517-.289h-2.477V149zm5.477-5.227L297.75 149h-1.636l-2.819-5.227zm8.141 5.409q-1.261 0-2.176-.557a3.74 3.74 0 0 1-1.404-1.568q-.488-1.012-.488-2.352 0-1.341.488-2.364.495-1.029 1.375-1.602.887-.58 2.069-.58.681 0 1.346.227.665.228 1.21.739.546.505.87 1.341.324.835.324 2.057v.568h-6.728v-1.159h5.364q0-.74-.295-1.318a2.23 2.23 0 0 0-.83-.915q-.535-.336-1.261-.335-.801 0-1.387.397a2.63 2.63 0 0 0-.892 1.023 3 3 0 0 0-.312 1.352v.773q0 .989.341 1.676.346.682.96 1.04.613.352 1.426.352.528 0 .955-.147.431-.154.744-.455.312-.307.483-.761l1.295.363a2.86 2.86 0 0 1-.687 1.159q-.483.495-1.193.773a4.4 4.4 0 0 1-1.597.273m9.199 0q-1.227 0-2.114-.58a3.77 3.77 0 0 1-1.363-1.596q-.478-1.017-.478-2.324 0-1.33.489-2.347.494-1.023 1.375-1.596.886-.58 2.068-.58.921 0 1.659.341.74.34 1.21.955.472.613.586 1.431h-1.341q-.154-.596-.682-1.056-.523-.466-1.409-.466-.784 0-1.375.409-.585.403-.915 1.142-.324.732-.324 1.721 0 1.012.318 1.762.324.75.909 1.164.592.415 1.387.415.523 0 .949-.182.426-.181.721-.522.295-.342.421-.818h1.341a3.1 3.1 0 0 1-.563 1.392 3.14 3.14 0 0 1-1.176.977q-.727.358-1.693.358m8.937 0q-1.182 0-2.074-.563-.886-.562-1.386-1.574-.494-1.011-.494-2.363 0-1.364.494-2.381.5-1.017 1.386-1.579.892-.563 2.074-.563t2.069.563q.891.562 1.386 1.579.5 1.017.5 2.381 0 1.352-.5 2.363a3.77 3.77 0 0 1-1.386 1.574q-.887.563-2.069.563m0-1.205q.898 0 1.478-.46a2.7 2.7 0 0 0 .858-1.21q.278-.75.278-1.625 0-.876-.278-1.631a2.75 2.75 0 0 0-.858-1.221q-.58-.466-1.478-.466t-1.477.466q-.579.465-.858 1.221a4.7 4.7 0 0 0-.278 1.631q0 .875.278 1.625.279.75.858 1.21.58.46 1.477.46m6.002 1.023v-8.727h1.295v1.363h.114q.273-.698.881-1.085.608-.392 1.46-.392.864 0 1.437.392.58.387.904 1.085h.091q.335-.675 1.005-1.074.67-.402 1.608-.403 1.171 0 1.915.733.744.728.744 2.267V149h-1.341v-5.841q0-.966-.528-1.381a1.96 1.96 0 0 0-1.244-.414q-.92 0-1.426.556-.507.552-.506 1.398V149h-1.364v-5.977q0-.744-.483-1.199-.482-.46-1.244-.46-.523 0-.977.278-.45.279-.728.773a2.3 2.3 0 0 0-.272 1.13V149zm13.906 0v-8.727h1.295v1.363h.114q.273-.698.881-1.085.608-.392 1.46-.392.864 0 1.438.392.579.387.903 1.085h.091a2.55 2.55 0 0 1 1.006-1.074q.67-.402 1.607-.403 1.171 0 1.915.733.744.728.745 2.267V149h-1.341v-5.841q0-.966-.529-1.381a1.96 1.96 0 0 0-1.244-.414q-.92 0-1.426.556-.506.552-.506 1.398V149h-1.364v-5.977q0-.744-.482-1.199-.483-.46-1.245-.46-.522 0-.977.278a2.1 2.1 0 0 0-.727.773 2.3 2.3 0 0 0-.273 1.13V149zm17.565.182q-1.261 0-2.176-.557a3.74 3.74 0 0 1-1.403-1.568q-.489-1.012-.489-2.352 0-1.341.489-2.364.494-1.029 1.375-1.602.886-.58 2.068-.58.682 0 1.347.227.664.228 1.21.739.545.505.869 1.341.324.835.324 2.057v.568h-6.727v-1.159h5.363q0-.74-.295-1.318a2.2 2.2 0 0 0-.83-.915q-.534-.336-1.261-.335-.801 0-1.386.397a2.6 2.6 0 0 0-.892 1.023 3 3 0 0 0-.313 1.352v.773q0 .989.341 1.676.346.682.96 1.04.614.352 1.426.352.53 0 .955-.147.432-.154.744-.455.314-.307.483-.761l1.296.363q-.205.66-.688 1.159-.483.495-1.193.773a4.4 4.4 0 0 1-1.597.273m6.995-5.432V149h-1.341v-8.727h1.295v1.363h.114q.306-.665.932-1.068.624-.41 1.613-.409.886 0 1.551.364.665.357 1.035 1.091.369.726.369 1.841V149h-1.341v-5.455q0-1.028-.534-1.602-.534-.579-1.466-.579-.642 0-1.148.278a2 2 0 0 0-.79.813q-.29.533-.289 1.295m11.314 5.432q-1.092 0-1.927-.551-.834-.557-1.306-1.569-.472-1.017-.472-2.403 0-1.375.472-2.386.471-1.012 1.312-1.563t1.943-.551q.853 0 1.347.284.5.279.761.637.267.352.415.579h.114v-4.295h1.341V149h-1.296v-1.341h-.159a9 9 0 0 1-.42.602q-.273.359-.779.642-.506.279-1.346.279m.181-1.205q.807 0 1.364-.42.556-.426.847-1.176.29-.756.289-1.745 0-.977-.284-1.71-.283-.738-.841-1.148-.556-.414-1.375-.414-.852 0-1.42.437-.562.432-.847 1.176a4.7 4.7 0 0 0-.278 1.659q0 .933.284 1.694.29.755.852 1.204.569.444 1.409.443m9.029 1.228a3.55 3.55 0 0 1-1.506-.313 2.6 2.6 0 0 1-1.074-.915q-.397-.602-.397-1.454 0-.75.295-1.216.295-.472.79-.739.494-.266 1.091-.398.602-.135 1.21-.215.795-.103 1.29-.154.5-.057.727-.187.233-.13.233-.455v-.045q0-.842-.46-1.307-.455-.466-1.381-.466-.96 0-1.506.42-.545.421-.767.898l-1.272-.454q.34-.797.909-1.239a3.4 3.4 0 0 1 1.25-.625 5.2 5.2 0 0 1 1.341-.182q.42 0 .965.102.552.097 1.063.404.518.306.858.926t.341 1.659V149h-1.341v-1.182h-.068a2.4 2.4 0 0 1-.455.608q-.318.324-.846.551-.53.228-1.29.228m.204-1.205q.797 0 1.341-.312.551-.314.83-.807.284-.495.284-1.04v-1.227q-.086.102-.375.187a6 6 0 0 1-.659.142q-.37.057-.722.102-.346.04-.562.069a5 5 0 0 0-.978.221 1.7 1.7 0 0 0-.727.449q-.273.296-.273.807 0 .699.518 1.057.522.352 1.323.352m10.039-7.727v1.136h-4.523v-1.136zm-3.205-2.091h1.341v8.318q0 .569.165.852a.85.85 0 0 0 .432.375q.267.091.562.091.222 0 .364-.023l.227-.045.273 1.205a3 3 0 0 1-.381.102 2.8 2.8 0 0 1-.619.057 2.7 2.7 0 0 1-1.114-.245 2.2 2.2 0 0 1-.898-.744q-.351-.5-.352-1.261zM398.415 149v-8.727h1.341V149zm.682-10.182a.96.96 0 0 1-.677-.267.86.86 0 0 1-.278-.642.86.86 0 0 1 .278-.642.96.96 0 0 1 .677-.267q.391 0 .67.267a.85.85 0 0 1 .284.642q0 .375-.284.642a.93.93 0 0 1-.67.267m6.66 10.364q-1.182 0-2.074-.563-.887-.562-1.386-1.574-.495-1.011-.494-2.363 0-1.364.494-2.381.5-1.017 1.386-1.579.892-.563 2.074-.563t2.068.563q.892.562 1.387 1.579.5 1.017.5 2.381 0 1.352-.5 2.363-.495 1.012-1.387 1.574-.886.563-2.068.563m0-1.205q.898 0 1.477-.46t.858-1.21.279-1.625q0-.876-.279-1.631a2.73 2.73 0 0 0-.858-1.221q-.579-.466-1.477-.466t-1.477.466q-.58.465-.858 1.221a4.7 4.7 0 0 0-.279 1.631q0 .875.279 1.625.278.75.858 1.21t1.477.46m7.342-4.227V149h-1.34v-8.727h1.295v1.363h.114q.307-.665.931-1.068.625-.41 1.614-.409.887 0 1.551.364.665.357 1.034 1.091.37.726.37 1.841V149h-1.341v-5.455q0-1.028-.534-1.602-.534-.579-1.466-.579-.642 0-1.148.278a2 2 0 0 0-.79.813q-.29.533-.29 1.295m14.201-1.523-1.205.341a2.2 2.2 0 0 0-.335-.585 1.6 1.6 0 0 0-.591-.477q-.375-.188-.96-.188-.801 0-1.335.37-.53.363-.529.926 0 .5.364.789.363.291 1.136.483l1.296.319q1.17.284 1.744.869.574.579.574 1.494 0 .75-.432 1.341-.426.591-1.193.932-.768.34-1.784.341-1.335 0-2.211-.58-.874-.579-1.107-1.693l1.272-.318q.182.705.688 1.057.512.352 1.335.352.937 0 1.489-.398.556-.403.556-.966 0-.454-.318-.761-.318-.312-.977-.466l-1.455-.341q-1.198-.284-1.761-.88-.557-.603-.557-1.506 0-.739.415-1.307a2.8 2.8 0 0 1 1.142-.892q.727-.324 1.648-.324 1.294 0 2.034.568a3.07 3.07 0 0 1 1.057 1.5M487.773 141h-1.409a2.95 2.95 0 0 0-1.188-1.841 3.2 3.2 0 0 0-.971-.477 3.9 3.9 0 0 0-1.114-.159 3.55 3.55 0 0 0-1.915.534q-.852.534-1.358 1.574-.5 1.04-.5 2.551t.5 2.551q.506 1.04 1.358 1.574a3.55 3.55 0 0 0 1.915.534q.579 0 1.114-.159.534-.159.971-.472a2.97 2.97 0 0 0 1.188-1.846h1.409a4.7 4.7 0 0 1-.58 1.596q-.42.705-1.045 1.199a4.6 4.6 0 0 1-1.404.744 5.2 5.2 0 0 1-1.653.256q-1.489 0-2.648-.727t-1.824-2.068-.664-3.182q0-1.84.664-3.182.665-1.34 1.824-2.068 1.159-.727 2.648-.727.88 0 1.653.255.779.256 1.404.75.625.49 1.045 1.193.42.7.58 1.597m4.663 8.205a3.55 3.55 0 0 1-1.506-.313 2.6 2.6 0 0 1-1.073-.915q-.399-.602-.398-1.454 0-.75.295-1.216.295-.472.79-.739.494-.266 1.091-.398.602-.135 1.21-.215.795-.103 1.29-.154.5-.057.727-.187.233-.13.233-.455v-.045q0-.842-.46-1.307-.454-.466-1.381-.466-.96 0-1.505.42-.546.421-.767.898l-1.273-.454q.34-.797.909-1.239a3.4 3.4 0 0 1 1.25-.625 5.2 5.2 0 0 1 1.341-.182q.42 0 .966.102.55.097 1.062.404.517.306.858.926t.341 1.659V149h-1.341v-1.182h-.068q-.136.284-.455.608-.318.324-.846.551t-1.29.228m.205-1.205q.795 0 1.341-.312a2.14 2.14 0 0 0 .829-.807q.284-.495.284-1.04v-1.227q-.086.102-.375.187a6 6 0 0 1-.659.142q-.37.057-.722.102-.346.04-.562.069a5 5 0 0 0-.977.221q-.45.148-.728.449-.272.296-.272.807 0 .699.517 1.057.523.352 1.324.352m10.038-7.727v1.136h-4.523v-1.136zm-3.205-2.091h1.341v8.318q0 .569.165.852a.85.85 0 0 0 .432.375q.267.091.562.091.222 0 .364-.023l.227-.045.273 1.205a3 3 0 0 1-.381.102 2.8 2.8 0 0 1-.619.057 2.7 2.7 0 0 1-1.114-.245 2.2 2.2 0 0 1-.897-.744q-.353-.5-.353-1.261zm8.787 11q-1.261 0-2.176-.557a3.74 3.74 0 0 1-1.403-1.568q-.489-1.012-.489-2.352 0-1.341.489-2.364.494-1.029 1.375-1.602.886-.58 2.068-.58.682 0 1.347.227.664.228 1.21.739.545.505.869 1.341.324.835.324 2.057v.568h-6.727v-1.159h5.363q0-.74-.295-1.318a2.2 2.2 0 0 0-.83-.915q-.534-.336-1.261-.335-.801 0-1.386.397a2.6 2.6 0 0 0-.892 1.023 3 3 0 0 0-.313 1.352v.773q0 .989.341 1.676.346.682.96 1.04.614.352 1.426.352.53 0 .955-.147.432-.154.744-.455.314-.307.483-.761l1.296.363q-.205.66-.688 1.159-.483.495-1.193.773a4.4 4.4 0 0 1-1.597.273m9.177 3.273q-.972 0-1.671-.25a3.6 3.6 0 0 1-1.165-.648 3.5 3.5 0 0 1-.733-.852l1.069-.75q.181.238.46.545.278.312.761.54.489.233 1.279.233 1.056 0 1.744-.512.687-.511.687-1.602v-1.773h-.113a7 7 0 0 1-.421.591q-.266.347-.773.62-.5.267-1.352.267a3.65 3.65 0 0 1-1.898-.5q-.835-.501-1.323-1.455-.483-.954-.483-2.318 0-1.34.471-2.335.472-1 1.313-1.546.84-.55 1.943-.551.852 0 1.352.284.506.279.773.637.273.352.42.579h.137v-1.386h1.295v8.977q0 1.125-.511 1.83a2.9 2.9 0 0 1-1.364 1.039 5.1 5.1 0 0 1-1.897.336m-.046-4.796q.806 0 1.364-.369.557-.37.846-1.063.29-.693.29-1.659 0-.944-.284-1.665t-.841-1.13q-.556-.41-1.375-.409-.852 0-1.42.431a2.63 2.63 0 0 0-.847 1.16 4.5 4.5 0 0 0-.278 1.613q0 .909.284 1.608.29.693.852 1.091.568.392 1.409.392m9.818 1.523q-1.182 0-2.074-.563-.887-.562-1.386-1.574-.495-1.011-.494-2.363 0-1.364.494-2.381.5-1.017 1.386-1.579.892-.563 2.074-.563t2.068.563q.892.562 1.387 1.579.5 1.017.5 2.381 0 1.352-.5 2.363-.495 1.012-1.387 1.574-.886.563-2.068.563m0-1.205q.898 0 1.478-.46a2.7 2.7 0 0 0 .857-1.21q.279-.75.279-1.625 0-.876-.279-1.631a2.74 2.74 0 0 0-.857-1.221q-.58-.466-1.478-.466t-1.477.466q-.579.465-.858 1.221a4.7 4.7 0 0 0-.278 1.631q0 .875.278 1.625.279.75.858 1.21.58.46 1.477.46m6.002 1.023v-8.727h1.295v1.318h.091q.238-.648.864-1.051a2.54 2.54 0 0 1 1.409-.404q.147 0 .369.006t.335.017v1.364a3 3 0 0 0-.312-.051 3 3 0 0 0-.506-.04q-.636 0-1.136.267-.495.262-.784.727-.284.46-.284 1.051V149zm5.953 0v-8.727h1.341V149zm.682-10.182a.96.96 0 0 1-.677-.267.86.86 0 0 1-.278-.642.86.86 0 0 1 .278-.642.96.96 0 0 1 .677-.267q.391 0 .67.267a.85.85 0 0 1 .284.642q0 .375-.284.642a.93.93 0 0 1-.67.267m6.774 10.364q-1.262 0-2.176-.557a3.74 3.74 0 0 1-1.404-1.568q-.489-1.012-.488-2.352 0-1.341.488-2.364.495-1.029 1.375-1.602.886-.58 2.068-.58.683 0 1.347.227.665.228 1.21.739.546.505.87 1.341.323.835.323 2.057v.568h-6.727v-1.159h5.364q0-.74-.296-1.318a2.2 2.2 0 0 0-.829-.915q-.534-.336-1.262-.335-.801 0-1.386.397a2.6 2.6 0 0 0-.892 1.023 3 3 0 0 0-.313 1.352v.773q0 .989.341 1.676.347.682.961 1.04.613.352 1.426.352.528 0 .954-.147.432-.154.745-.455.312-.307.483-.761l1.295.363q-.205.66-.687 1.159a3.35 3.35 0 0 1-1.194.773 4.4 4.4 0 0 1-1.596.273m11.835-6.955-1.205.341a2.2 2.2 0 0 0-.335-.585 1.6 1.6 0 0 0-.591-.477q-.375-.188-.96-.188-.801 0-1.335.37-.528.363-.529.926 0 .5.364.789.363.291 1.136.483l1.296.319q1.17.284 1.744.869.574.579.574 1.494 0 .75-.432 1.341-.426.591-1.193.932-.767.34-1.784.341-1.335 0-2.21-.58-.876-.579-1.108-1.693l1.273-.318q.182.705.687 1.057.511.352 1.335.352.937 0 1.489-.398.557-.403.557-.966 0-.454-.318-.761-.319-.312-.978-.466l-1.454-.341q-1.2-.284-1.762-.88-.556-.603-.556-1.506 0-.739.414-1.307a2.8 2.8 0 0 1 1.142-.892q.727-.324 1.648-.324 1.296 0 2.034.568.745.569 1.057 1.5M611.523 149l-3.182-11.636h1.432l2.432 9.477h.113l2.477-9.477h1.591l2.478 9.477h.113l2.432-9.477h1.432L619.659 149h-1.454l-2.569-9.273h-.091L612.977 149zm14.647.205a3.55 3.55 0 0 1-1.505-.313 2.6 2.6 0 0 1-1.074-.915q-.398-.602-.398-1.454 0-.75.296-1.216.295-.472.789-.739a4.2 4.2 0 0 1 1.091-.398q.602-.135 1.211-.215.795-.103 1.289-.154.5-.057.728-.187.233-.13.233-.455v-.045q0-.842-.461-1.307-.454-.466-1.38-.466-.96 0-1.506.42-.546.421-.767.898l-1.273-.454q.34-.797.909-1.239.575-.449 1.25-.625a5.2 5.2 0 0 1 1.341-.182q.42 0 .966.102.552.097 1.063.404.516.306.858.926.34.62.34 1.659V149h-1.34v-1.182h-.069q-.136.284-.454.608t-.847.551-1.29.228m.205-1.205q.795 0 1.341-.312a2.13 2.13 0 0 0 1.114-1.847v-1.227q-.086.102-.375.187-.285.08-.66.142a28 28 0 0 1-.721.102q-.347.04-.563.069a5 5 0 0 0-.977.221 1.7 1.7 0 0 0-.727.449q-.273.296-.273.807 0 .699.517 1.057.523.352 1.324.352m6.794 4.273a3 3 0 0 1-.608-.057 1.6 1.6 0 0 1-.369-.102l.341-1.182q.488.124.863.091a1.04 1.04 0 0 0 .665-.335q.295-.296.54-.961l.25-.682-3.227-8.772h1.454l2.409 6.954h.091l2.409-6.954h1.455l-3.705 10q-.25.676-.619 1.119a2.3 2.3 0 0 1-.858.665 2.65 2.65 0 0 1-1.091.216m14.224-10.046-1.204.341a2.3 2.3 0 0 0-.335-.585 1.6 1.6 0 0 0-.591-.477q-.375-.188-.96-.188-.802 0-1.336.37-.528.363-.528.926 0 .5.364.789.363.291 1.136.483l1.295.319q1.171.284 1.745.869.573.579.574 1.494 0 .75-.432 1.341-.426.591-1.193.932-.768.34-1.785.341-1.334 0-2.21-.58-.874-.579-1.108-1.693l1.273-.318q.181.705.688 1.057.51.352 1.335.352.937 0 1.488-.398.557-.403.557-.966 0-.454-.318-.761-.318-.312-.977-.466l-1.455-.341q-1.199-.284-1.761-.88-.557-.603-.557-1.506 0-.739.415-1.307a2.8 2.8 0 0 1 1.142-.892q.727-.324 1.648-.324 1.295 0 2.034.568.744.569 1.056 1.5m10.473-1.954v1.136h-4.522v-1.136zm-3.204-2.091h1.341v8.318q0 .569.165.852a.85.85 0 0 0 .431.375q.267.091.563.091.222 0 .364-.023l.227-.045.273 1.205a3 3 0 0 1-.381.102 2.8 2.8 0 0 1-.619.057 2.7 2.7 0 0 1-1.114-.245 2.2 2.2 0 0 1-.898-.744q-.352-.5-.352-1.261zm8.673 11q-1.182 0-2.074-.563-.887-.562-1.386-1.574-.495-1.011-.494-2.363 0-1.364.494-2.381.5-1.017 1.386-1.579.892-.563 2.074-.563t2.068.563q.892.562 1.387 1.579.5 1.017.5 2.381 0 1.352-.5 2.363-.495 1.012-1.387 1.574-.886.563-2.068.563m0-1.205q.898 0 1.477-.46t.858-1.21.279-1.625q0-.876-.279-1.631a2.73 2.73 0 0 0-.858-1.221q-.579-.466-1.477-.466t-1.477.466q-.579.465-.858 1.221a4.7 4.7 0 0 0-.278 1.631q0 .875.278 1.625.279.75.858 1.21.58.46 1.477.46M674.018 149v-11.636h3.932q1.37 0 2.239.494.875.489 1.295 1.324.421.835.421 1.863t-.421 1.87q-.414.84-1.284 1.341-.869.494-2.227.494h-2.818v-1.25h2.773q.937 0 1.505-.324.569-.324.824-.875.261-.557.261-1.256a2.9 2.9 0 0 0-.261-1.25 1.86 1.86 0 0 0-.829-.863q-.575-.318-1.523-.318h-2.477V149zm11.316-11.636V149h-1.341v-11.636zm5.024 11.841a3.55 3.55 0 0 1-1.506-.313 2.6 2.6 0 0 1-1.074-.915q-.397-.602-.397-1.454 0-.75.295-1.216.295-.472.79-.739.494-.266 1.091-.398.602-.135 1.21-.215.795-.103 1.29-.154.5-.057.727-.187.233-.13.233-.455v-.045q0-.842-.46-1.307-.454-.466-1.381-.466-.96 0-1.506.42-.545.421-.767.898l-1.272-.454q.34-.797.909-1.239a3.4 3.4 0 0 1 1.25-.625 5.2 5.2 0 0 1 1.341-.182q.42 0 .966.102.55.097 1.062.404.518.306.858.926t.341 1.659V149h-1.341v-1.182h-.068a2.4 2.4 0 0 1-.455.608q-.318.324-.846.551-.529.228-1.29.228m.204-1.205q.797 0 1.341-.312.552-.314.83-.807.284-.495.284-1.04v-1.227q-.086.102-.375.187a6 6 0 0 1-.659.142q-.37.057-.722.102-.346.04-.562.069a5 5 0 0 0-.977.221q-.45.148-.728.449-.272.296-.272.807 0 .699.517 1.057.522.352 1.323.352m6.795 4.273q-.341 0-.608-.057a1.6 1.6 0 0 1-.37-.102l.341-1.182q.489.124.864.091.375-.035.665-.335.295-.296.539-.961l.25-.682-3.227-8.772h1.455l2.409 6.954h.091l2.409-6.954h1.454l-3.704 10q-.25.676-.62 1.119a2.3 2.3 0 0 1-.858.665 2.6 2.6 0 0 1-1.09.216M760.773 140.273a1.78 1.78 0 0 0-.83-1.341q-.727-.477-1.784-.477-.773 0-1.352.25a2.15 2.15 0 0 0-.898.687 1.65 1.65 0 0 0-.318.994q0 .466.221.802.228.329.58.551.352.216.739.358.386.135.71.221l1.182.318q.454.12 1.011.33.562.21 1.074.574.517.357.852.92.336.562.335 1.381 0 .943-.494 1.704-.489.762-1.432 1.211-.937.449-2.278.449-1.25 0-2.165-.404-.909-.404-1.432-1.125a3.2 3.2 0 0 1-.585-1.676h1.455q.056.659.443 1.091.392.426.988.636.603.205 1.296.205.807 0 1.449-.262.642-.267 1.017-.738.375-.477.375-1.114 0-.58-.324-.943a2.4 2.4 0 0 0-.852-.591 9 9 0 0 0-1.142-.398l-1.432-.409q-1.364-.391-2.159-1.119-.796-.727-.796-1.903 0-.978.529-1.705a3.5 3.5 0 0 1 1.432-1.136q.903-.41 2.017-.409 1.125 0 2 .403.875.398 1.386 1.091.517.693.545 1.574zm3.657 12v-12h1.296v1.386h.159q.148-.227.409-.579.267-.358.761-.637.5-.284 1.353-.284 1.102 0 1.943.551.84.551 1.312 1.563.472 1.01.472 2.386 0 1.386-.472 2.403-.471 1.012-1.306 1.569-.835.55-1.927.551-.84 0-1.346-.279-.506-.283-.779-.642a9 9 0 0 1-.42-.602h-.114v4.614zm1.319-7.637q0 .989.289 1.745.29.75.847 1.176.557.42 1.364.42.84 0 1.403-.443.569-.449.852-1.204.29-.762.29-1.694 0-.92-.284-1.659-.279-.744-.847-1.176-.562-.437-1.414-.437-.819 0-1.375.414-.558.41-.841 1.148-.284.733-.284 1.71m12.09 4.546q-1.26 0-2.176-.557a3.74 3.74 0 0 1-1.403-1.568q-.489-1.012-.489-2.352 0-1.341.489-2.364.494-1.029 1.375-1.602.886-.58 2.068-.58.683 0 1.347.227.664.228 1.21.739.546.505.869 1.341.324.835.324 2.057v.568h-6.727v-1.159h5.363q0-.74-.295-1.318a2.2 2.2 0 0 0-.83-.915q-.534-.336-1.261-.335-.801 0-1.386.397a2.6 2.6 0 0 0-.892 1.023 3 3 0 0 0-.313 1.352v.773q0 .989.341 1.676.346.682.96 1.04.614.352 1.426.352.53 0 .955-.147.432-.154.744-.455.313-.307.483-.761l1.296.363q-.205.66-.688 1.159-.482.495-1.193.773a4.4 4.4 0 0 1-1.597.273m9.199 0q-1.227 0-2.113-.58a3.77 3.77 0 0 1-1.364-1.596q-.477-1.017-.477-2.324 0-1.33.488-2.347.495-1.023 1.375-1.596.887-.58 2.069-.58.92 0 1.659.341.738.34 1.21.955.471.613.585 1.431h-1.341q-.153-.596-.682-1.056-.522-.466-1.409-.466-.784 0-1.375.409-.585.403-.914 1.142-.324.732-.324 1.721 0 1.012.318 1.762.324.75.909 1.164.591.415 1.386.415.523 0 .949-.182.426-.181.722-.522.296-.342.42-.818h1.341a3.1 3.1 0 0 1-.562 1.392 3.16 3.16 0 0 1-1.176.977q-.728.358-1.694.358m5.392-.182v-8.727h1.341V149zm.682-10.182a.95.95 0 0 1-.676-.267.86.86 0 0 1-.278-.642q0-.375.278-.642a.95.95 0 0 1 .676-.267q.393 0 .671.267a.85.85 0 0 1 .284.642q0 .375-.284.642a.94.94 0 0 1-.671.267m5.683 10.387a3.55 3.55 0 0 1-1.505-.313 2.6 2.6 0 0 1-1.074-.915q-.398-.602-.398-1.454 0-.75.296-1.216.295-.472.789-.739a4.2 4.2 0 0 1 1.091-.398q.602-.135 1.211-.215.795-.103 1.289-.154.5-.057.728-.187.233-.13.233-.455v-.045q0-.842-.461-1.307-.454-.466-1.38-.466-.96 0-1.506.42-.545.421-.767.898l-1.273-.454q.34-.797.909-1.239.575-.449 1.25-.625a5.2 5.2 0 0 1 1.341-.182q.42 0 .966.102.552.097 1.063.404.516.306.858.926.34.62.34 1.659V149h-1.34v-1.182h-.069q-.136.284-.454.608t-.847.551-1.29.228M799 148q.795 0 1.341-.312a2.13 2.13 0 0 0 1.114-1.847v-1.227q-.086.102-.375.187-.285.08-.66.142a28 28 0 0 1-.721.102q-.347.04-.563.069a5 5 0 0 0-.977.221 1.7 1.7 0 0 0-.727.449q-.273.296-.273.807 0 .699.517 1.057.523.352 1.324.352m7.584-10.636V149h-1.341v-11.636zm13.501 2.909a1.78 1.78 0 0 0-.829-1.341q-.728-.477-1.784-.477-.773 0-1.353.25a2.15 2.15 0 0 0-.897.687 1.64 1.64 0 0 0-.319.994q0 .466.222.802.228.329.58.551.352.216.738.358.387.135.71.221l1.182.318q.454.12 1.012.33.563.21 1.073.574.517.357.853.92.335.562.335 1.381 0 .943-.494 1.704-.489.762-1.432 1.211-.938.449-2.279.449-1.25 0-2.164-.404-.91-.404-1.432-1.125a3.2 3.2 0 0 1-.585-1.676h1.454q.057.659.443 1.091.392.426.989.636.602.205 1.295.205.807 0 1.449-.262.642-.267 1.017-.738.375-.477.375-1.114 0-.58-.324-.943a2.4 2.4 0 0 0-.852-.591 9 9 0 0 0-1.142-.398l-1.432-.409q-1.363-.391-2.159-1.119-.795-.727-.795-1.903 0-.978.528-1.705a3.5 3.5 0 0 1 1.432-1.136q.903-.41 2.017-.409 1.125 0 2 .403.875.398 1.386 1.091.517.693.546 1.574zm7.317 8.909q-1.261 0-2.176-.557a3.74 3.74 0 0 1-1.404-1.568q-.488-1.012-.488-2.352 0-1.341.488-2.364.495-1.029 1.375-1.602.887-.58 2.069-.58.681 0 1.346.227.665.228 1.21.739.546.505.87 1.341.324.835.324 2.057v.568h-6.728v-1.159h5.364q0-.74-.295-1.318a2.23 2.23 0 0 0-.83-.915q-.535-.336-1.261-.335-.802 0-1.387.397a2.63 2.63 0 0 0-.892 1.023 3 3 0 0 0-.312 1.352v.773q0 .989.341 1.676.346.682.96 1.04.613.352 1.426.352.528 0 .955-.147.431-.154.744-.455.312-.307.483-.761l1.295.363a2.86 2.86 0 0 1-.687 1.159q-.483.495-1.193.773a4.4 4.4 0 0 1-1.597.273m9.199 0q-1.227 0-2.114-.58a3.77 3.77 0 0 1-1.363-1.596q-.478-1.017-.478-2.324 0-1.33.489-2.347.494-1.023 1.375-1.596.886-.58 2.068-.58.921 0 1.659.341.74.34 1.21.955.472.613.586 1.431h-1.341q-.154-.596-.682-1.056-.523-.466-1.409-.466-.784 0-1.375.409-.585.403-.915 1.142-.324.732-.324 1.721 0 1.012.318 1.762.324.75.909 1.164.591.415 1.387.415.522 0 .949-.182.426-.181.721-.522.295-.342.421-.818h1.341a3.1 3.1 0 0 1-.563 1.392 3.14 3.14 0 0 1-1.176.977q-.727.358-1.693.358m9.187-8.909v1.136h-4.522v-1.136zm-3.204-2.091h1.341v8.318q0 .569.164.852a.85.85 0 0 0 .432.375q.267.091.563.091.222 0 .363-.023l.228-.045.272 1.205q-.135.051-.38.102-.245.057-.62.057-.568 0-1.113-.245a2.2 2.2 0 0 1-.898-.744q-.352-.5-.352-1.261zM847.805 149v-8.727h1.341V149zm.682-10.182a.95.95 0 0 1-.676-.267.86.86 0 0 1-.278-.642q0-.375.278-.642a.95.95 0 0 1 .676-.267q.393 0 .671.267a.85.85 0 0 1 .284.642q0 .375-.284.642a.94.94 0 0 1-.671.267m6.661 10.364q-1.182 0-2.074-.563-.887-.562-1.386-1.574-.495-1.011-.495-2.363 0-1.364.495-2.381.5-1.017 1.386-1.579.892-.563 2.074-.563t2.068.563q.893.562 1.386 1.579.5 1.017.5 2.381 0 1.352-.5 2.363a3.76 3.76 0 0 1-1.386 1.574q-.886.563-2.068.563m0-1.205q.897 0 1.477-.46a2.7 2.7 0 0 0 .858-1.21q.279-.75.278-1.625 0-.876-.278-1.631a2.75 2.75 0 0 0-.858-1.221q-.58-.466-1.477-.466t-1.478.466q-.579.465-.858 1.221a4.7 4.7 0 0 0-.278 1.631q0 .875.278 1.625.279.75.858 1.21.58.46 1.478.46m7.342-4.227V149h-1.341v-8.727h1.296v1.363h.113q.307-.665.932-1.068.625-.41 1.614-.409.886 0 1.551.364.665.357 1.034 1.091.369.726.369 1.841V149h-1.341v-5.455q0-1.028-.534-1.602-.534-.579-1.466-.579-.642 0-1.147.278a2 2 0 0 0-.79.813q-.29.533-.29 1.295m14.2-1.523-1.204.341a2.3 2.3 0 0 0-.335-.585 1.6 1.6 0 0 0-.591-.477q-.375-.188-.961-.188-.801 0-1.335.37-.528.363-.528.926 0 .5.363.789.365.291 1.137.483l1.295.319q1.171.284 1.745.869.573.579.573 1.494 0 .75-.431 1.341-.426.591-1.194.932-.767.34-1.784.341-1.335 0-2.21-.58-.875-.579-1.108-1.693l1.273-.318q.182.705.687 1.057.511.352 1.336.352.938 0 1.488-.398.557-.403.557-.966 0-.454-.318-.761-.318-.312-.977-.466l-1.455-.341q-1.198-.284-1.761-.88-.557-.603-.557-1.506 0-.739.415-1.307a2.8 2.8 0 0 1 1.142-.892q.727-.324 1.647-.324 1.296 0 2.035.568.744.569 1.056 1.5M534.793 48.5h-1.674a3.49 3.49 0 0 0-1.41-2.186 3.8 3.8 0 0 0-1.154-.567 4.6 4.6 0 0 0-1.322-.189q-1.255 0-2.274.635-1.012.633-1.612 1.868-.594 1.235-.594 3.03t.594 3.03q.6 1.233 1.612 1.868a4.2 4.2 0 0 0 2.274.635q.689 0 1.322-.19a3.9 3.9 0 0 0 1.154-.56q.527-.377.891-.924.37-.553.519-1.268h1.674a5.6 5.6 0 0 1-.689 1.896A5.2 5.2 0 0 1 532.863 57a5.4 5.4 0 0 1-1.667.884 6.2 6.2 0 0 1-1.963.304q-1.768 0-3.144-.864t-2.166-2.456q-.789-1.591-.789-3.778t.789-3.779q.789-1.592 2.166-2.456 1.375-.863 3.144-.863 1.046 0 1.963.303.925.304 1.667.891.743.581 1.241 1.417.5.83.689 1.896m14.933 2.59q0 2.187-.79 3.78-.789 1.591-2.166 2.455t-3.144.864q-1.767 0-3.144-.864t-2.166-2.456q-.789-1.591-.789-3.778t.789-3.779q.789-1.592 2.166-2.456t3.144-.863 3.144.863 2.166 2.456.79 3.779m-1.62 0q0-1.794-.6-3.029-.594-1.235-1.613-1.868a4.2 4.2 0 0 0-2.267-.635q-1.254 0-2.274.635-1.011.633-1.612 1.868-.594 1.235-.594 3.03t.594 3.03q.6 1.233 1.612 1.868 1.02.635 2.274.635 1.256 0 2.267-.635 1.019-.633 1.613-1.869.6-1.234.6-3.03m5.003-6.908h1.997l4.696 11.47h.162l4.696-11.47h1.997V58h-1.565V47.501h-.135L560.639 58h-1.511l-4.319-10.499h-.134V58h-1.566zm17.474 0h1.997l4.696 11.47h.162l4.696-11.47h1.997V58h-1.566V47.501h-.134L578.112 58h-1.511l-4.318-10.499h-.135V58h-1.565zm26.541 0h1.673v9.149q0 1.417-.668 2.53-.66 1.107-1.869 1.748-1.207.633-2.833.634-1.626 0-2.834-.634-1.208-.642-1.876-1.748-.661-1.113-.661-2.53v-9.15h1.673v9.015q0 1.012.445 1.802.446.782 1.269 1.234.83.446 1.984.446t1.983-.446a3.14 3.14 0 0 0 1.269-1.234q.445-.79.445-1.802zm16.542 0V58h-1.619l-7.53-10.85h-.135V58h-1.673V44.182h1.619l7.557 10.876h.135V44.182zm5.592 0V58h-1.673V44.182zm3.169 1.484v-1.484h10.364v1.484h-4.345V58h-1.674V45.666zm12.329-1.484h1.916l3.832 6.45h.162l3.833-6.45h1.916l-4.993 8.123V58h-1.673v-5.695zM816.793 48.5h-1.674a3.49 3.49 0 0 0-1.41-2.186 3.8 3.8 0 0 0-1.154-.567 4.6 4.6 0 0 0-1.322-.189q-1.255 0-2.274.635-1.012.633-1.612 1.868-.594 1.235-.594 3.03t.594 3.03q.6 1.233 1.612 1.868a4.2 4.2 0 0 0 2.274.635q.689 0 1.322-.19a3.9 3.9 0 0 0 1.154-.56q.527-.377.891-.924.37-.553.519-1.268h1.674a5.6 5.6 0 0 1-.689 1.896A5.2 5.2 0 0 1 814.863 57a5.4 5.4 0 0 1-1.667.884 6.2 6.2 0 0 1-1.963.304q-1.768 0-3.144-.864t-2.166-2.456q-.789-1.591-.789-3.778t.789-3.779q.789-1.592 2.166-2.456 1.375-.863 3.144-.863 1.046 0 1.963.303.925.304 1.667.891.743.581 1.241 1.417.5.83.689 1.896m3.274 9.5V44.182h1.673v6.153h7.368v-6.153h1.673V58h-1.673v-6.18h-7.368V58zm15.201 0h-1.755l5.074-13.818h1.728L845.388 58h-1.754l-4.129-11.632h-.108zm.647-5.398h7.072v1.485h-7.072zm9.826-6.936v-1.484h10.364v1.484h-4.346V58h-1.673V45.666zM882.23 47.636a2.12 2.12 0 0 0-.985-1.592q-.864-.567-2.119-.567-.917 0-1.605.297-.682.297-1.066.817-.378.52-.378 1.18 0 .554.263.952.27.39.688.654.418.257.877.425.459.162.844.263l1.403.378q.54.142 1.201.392.668.249 1.275.681.615.425 1.012 1.093.399.668.398 1.64 0 1.12-.587 2.024-.58.903-1.7 1.437-1.113.533-2.706.533-1.484 0-2.57-.48-1.08-.478-1.7-1.335-.614-.857-.695-1.99h1.727q.067.782.526 1.295.465.506 1.174.756.716.242 1.538.242.959 0 1.721-.31.762-.317 1.208-.877.445-.567.445-1.322 0-.69-.385-1.12a2.8 2.8 0 0 0-1.012-.702q-.627-.27-1.356-.472l-1.7-.486q-1.62-.466-2.564-1.33-.945-.863-.945-2.26 0-1.16.628-2.024.634-.87 1.7-1.35 1.073-.485 2.395-.485 1.337 0 2.375.479 1.04.473 1.647 1.295.614.824.647 1.87zm14.198-3.454h1.673v9.149q0 1.417-.668 2.53-.662 1.107-1.869 1.748-1.208.633-2.834.634-1.626 0-2.834-.634-1.207-.642-1.875-1.748-.661-1.113-.661-2.53v-9.15h1.673v9.015q0 1.012.445 1.802.446.782 1.269 1.234.83.446 1.983.446t1.984-.446a3.13 3.13 0 0 0 1.268-1.234q.446-.79.446-1.802zM902.013 58V44.182h4.669q1.626 0 2.658.587 1.039.58 1.538 1.572t.5 2.213-.5 2.22q-.492.999-1.525 1.592-1.032.588-2.644.587h-3.347V51.47h3.293q1.113 0 1.788-.385a2.3 2.3 0 0 0 .978-1.039q.31-.66.31-1.491 0-.83-.31-1.484a2.22 2.22 0 0 0-.985-1.026q-.681-.378-1.808-.378h-2.942V58zm12.63 0V44.182h4.669q1.626 0 2.658.587 1.04.58 1.539 1.572.5.992.499 2.213 0 1.221-.499 2.22-.493.999-1.525 1.592-1.032.588-2.645.587h-3.347V51.47h3.293q1.113 0 1.788-.385a2.3 2.3 0 0 0 .978-1.039q.31-.66.311-1.491 0-.83-.311-1.484a2.2 2.2 0 0 0-.985-1.026q-.681-.378-1.808-.378h-2.942V58zm24.29-6.91q0 2.187-.79 3.78-.789 1.591-2.166 2.455-1.375.864-3.144.864-1.767 0-3.144-.864-1.376-.864-2.166-2.456-.789-1.591-.789-3.778t.789-3.779q.79-1.592 2.166-2.456 1.377-.863 3.144-.863 1.769 0 3.144.863 1.377.864 2.166 2.456.79 1.593.79 3.779m-1.62 0q0-1.794-.6-3.029-.593-1.235-1.613-1.868a4.2 4.2 0 0 0-2.267-.635q-1.254 0-2.274.635-1.012.633-1.612 1.868-.594 1.235-.594 3.03t.594 3.03q.6 1.233 1.612 1.868 1.02.635 2.274.635 1.256 0 2.267-.635 1.02-.633 1.613-1.869.6-1.234.6-3.03m5.003 6.91V44.182h4.669q1.62 0 2.659.553 1.038.546 1.538 1.505.5.957.499 2.179 0 1.221-.499 2.166t-1.532 1.484q-1.032.533-2.638.533h-3.778v-1.511h3.724q1.107 0 1.782-.324.68-.324.985-.918.31-.6.31-1.43t-.31-1.45-.992-.959q-.681-.345-1.802-.344h-2.941V58zm6.505-6.207 3.4 6.207h-1.943l-3.347-6.207zm5.463-6.127v-1.484h10.364v1.484h-4.346V58h-1.673V45.666z"/><path stroke="var(--color-secondary)" d="M183.5 276.5h1009v569h-1009zM1083.5 853.5h110v50h-110zM933.5 853.5h144v50h-144zM783.5 853.5h144v50h-144zM633.5 853.5h144v50h-144zM483.5 853.5h144v50h-144zM333.5 853.5h144v50h-144zM183.5 853.5h144v50h-144z"/><path stroke="var(--color-secondary)" stroke-linecap="round" stroke-width="3" d="M441.5 65.5h61"/><rect width="497" height="205" x="16.5" y="687.5" fill="var(--color-foreground)" stroke="var(--color-secondary)" rx="9.5"/><rect width="472" height="74" x="508.5" y="474.5" fill="var(--color-foreground)" rx="9.5"/><rect width="472" height="74" x="508.5" y="474.5" stroke="var(--color-secondary)" stroke-dasharray="11 11" rx="9.5"/><path fill="var(--color-secondary)" d="M523.114 499.168v-1.26h-1.274v-7.742h1.414v7.602h1.12v-2.548h1.288v-3.78h1.4v3.78h1.288v2.548h1.134v-7.602h1.4v7.742h-1.26v1.26h-1.414v-1.26h-1.288v-2.548h-1.12v2.548h-1.288v1.26zm9.458 0V492.7h1.414v6.468zm0-7.588v-1.414h1.414v1.414zm3.104 7.588v-9.002h1.414v5.054h1.12v-1.246h2.548V492.7h1.428v1.4h-1.288v1.26h-2.548v1.134h2.548v1.274h1.288v1.4h-1.428v-1.26h-2.548v-1.274h-1.12v2.534zm8.203 0V492.7h1.414v6.468zm0-7.588v-1.414h1.414v1.414zm4.104 7.588v-1.26h-1.274v-3.934h1.274V492.7h3.948v1.274h1.288v1.386h-1.428v-1.26h-3.668v1.12h2.548v1.414h-2.548v1.134h3.668v-1.288h1.428v1.414h-1.288v1.274zm9.746 2.31v-7.812h1.232v-1.204h4.256v1.204h1.246v4.298h-1.246v1.19h-3.71v2.324zm1.778-4.228h3.164v-2.884h-3.164zm7.89 1.904v-1.19h-1.232v-4.298h1.232v-1.204h4.256v1.204h1.246v3.584h1.246v1.904h-1.792v-1.19h-.7v1.19zm.546-1.904h3.164v-2.884h-3.164zm7.491 1.904v-6.692h5.488v1.204h1.246v5.488h-1.792v-4.788h-3.164v4.788zm9.244 0v-1.19h-1.232v-4.298h1.232v-1.204h4.256v1.204h1.246v1.89h-1.792v-1.19h-3.164v.476h2.478v1.918h-2.478v.49h3.164v-1.218h1.792v1.918h-1.246v1.204zm7.203 0v-9.086h1.778v9.086zm8.809.014v-1.26h-1.26V494.1h-1.274v-1.4h1.274v-2.534h1.4v2.534h3.836v1.4h-3.836v3.668h3.696v-1.274h1.414v1.414h-1.274v1.26zm6.668 0v-9.002h1.414v3.808h1.12V492.7h2.688v1.274h1.288v5.194h-1.428V494.1h-2.408v1.26h-1.26v3.808zm9.203 0v-1.26h-1.274v-3.934h1.274V492.7h3.948v1.274h1.288v3.794h1.274v1.4h-1.414v-1.26h-1.148v1.26zm.14-1.4h3.668V494.1h-3.668zm9.05 1.4v-1.26h-1.26V494.1h-1.274v-1.4h1.274v-2.534h1.4v2.534h3.836v1.4h-3.836v3.668h3.696v-1.274h1.414v1.414h-1.274v1.26zm11.017 0v-1.26h-1.274v-3.934h1.274V492.7h3.948v1.274h1.288v1.386h-1.428v-1.26h-3.668v3.668h3.668v-1.274h1.428v1.414h-1.288v1.26zm7.78 0v-1.26h-1.274v-3.934h1.274V492.7h3.948v1.274h1.288v3.934h-1.288v1.26zm.14-1.4h3.668V494.1h-3.668zm6.789 1.4V492.7h5.222v1.274h1.288v5.194h-1.428V494.1h-3.668v5.068zm10.176 0v-1.26h-1.26V494.1h-1.274v-1.4h1.274v-2.534h1.4v2.534h3.836v1.4h-3.836v3.668h3.696v-1.274h1.414v1.414h-1.274v1.26zm7.791 0v-1.26h-1.274v-3.934h1.274V492.7h3.948v1.274h1.288v3.794h1.274v1.4h-1.414v-1.26h-1.148v1.26zm.14-1.4h3.668V494.1h-3.668zm7.637 1.4V492.7h1.414v6.468zm0-7.588v-1.414h1.414v1.414zm2.83 7.588V492.7h5.222v1.274h1.288v5.194h-1.428V494.1h-3.668v5.068zm7.93 0v-1.4h5.082v-1.134h-3.808v-1.274h-1.274v-1.386h1.274V492.7h5.236v1.4h-5.096v1.12h3.808v1.274h1.288v1.414h-1.288v1.26zm12.279 0v-1.26h-1.274v-3.934h1.274V492.7h3.948v1.274h1.288v3.794h1.274v1.4h-1.414v-1.26h-1.148v1.26zm.14-1.4h3.668V494.1H700.4zm7.637 1.4v-9.002h1.414v9.002zm3.104 0v-9.002h1.414v9.002zm8.44 0v-1.26h-1.26V494.1h-1.274v-1.4h1.274v-2.534h1.4v2.534h3.836v1.4h-3.836v3.668h3.696v-1.274h1.414v1.414h-1.274v1.26zm6.667 0v-9.002h1.414v3.808h1.12V492.7h2.688v1.274h1.288v5.194h-1.428V494.1h-2.408v1.26h-1.26v3.808zm9.204 0v-1.26h-1.274v-3.934h1.274V492.7h3.948v1.274h1.288v1.386h-1.428v-1.26h-3.668v1.12h2.548v1.414h-2.548v1.134h3.668v-1.288h1.428v1.414H739.4v1.274zm11.006 0v-1.26h-1.274V492.7h1.414v5.068h3.668V492.7h1.428v5.208h-1.288v1.26zm6.792 0v-1.4h5.082v-1.134h-3.808v-1.274h-1.274v-1.386h1.274V492.7h5.236v1.4h-5.096v1.12h3.808v1.274h1.288v1.414h-1.288v1.26zm9.204 0v-1.26h-1.274v-3.934h1.274V492.7h3.948v1.274h1.288v1.386h-1.428v-1.26h-3.668v1.12h2.548v1.414h-2.548v1.134h3.668v-1.288h1.428v1.414h-1.288v1.274zm6.929 0v-7.728h1.274v-1.274h3.948v1.274h1.288v1.4h-1.428v-1.26h-3.668v2.394h2.548v1.386h-2.548v3.808zm8.78 0v-1.26h-1.274V492.7h1.414v5.068h3.668V492.7h1.428v5.208h-1.288v1.26zm6.929 0v-9.002h1.414v9.002zm3.103 0v-9.002h1.414v9.002zm5.907 0v-9.002h1.414v9.002zm3.103 0V492.7h1.414v6.468zm0-7.588v-1.414h1.414v1.414zm2.83 7.588V492.7h5.222v1.274h1.288v5.194h-1.428V494.1h-3.668v5.068zm7.93 0v-9.002h1.414v5.054h1.12v-1.246h2.548V492.7h1.428v1.4h-1.288v1.26h-2.548v1.134h2.548v1.274h1.288v1.4h-1.428v-1.26h-2.548v-1.274h-1.12v2.534zm7.93 0v-1.4h5.082v-1.134h-3.808v-1.274h-1.274v-1.386h1.274V492.7h5.236v1.4h-5.096v1.12h3.808v1.274h1.288v1.414h-1.288v1.26zm12.28 2.534v-1.26h-1.274v-1.4h1.414v1.26h3.682v-2.394h-3.822v-1.274h-1.274V492.7h1.414v3.794h3.682V492.7h1.414v7.742h-1.274v1.26zm8.203-2.534v-1.26h-1.274v-3.934h1.274V492.7h3.948v1.274h1.288v3.934h-1.288v1.26zm.14-1.4h3.668V494.1h-3.668zm8.063 1.4v-1.26h-1.274V492.7h1.414v5.068h3.668V492.7h1.428v5.208h-1.288v1.26zm9.732 0V492.7h5.222v1.274h1.288v5.194h-1.428V494.1h-3.668v5.068zm9.053 0v-1.26h-1.274v-3.934h1.274V492.7h3.948v1.274h1.288v1.386h-1.428v-1.26h-3.668v1.12h2.548v1.414h-2.548v1.134h3.668v-1.288h1.428v1.414h-1.288v1.274zm8.203 0v-1.26h-1.274v-3.934h1.274V492.7h3.948v1.274h1.288v1.386h-1.428v-1.26h-3.668v1.12h2.548v1.414h-2.548v1.134h3.668v-1.288h1.428v1.414h-1.288v1.274zm8.203 0v-1.26h-1.274v-3.934h1.274V492.7h3.822v-2.534h1.414v7.742h-1.288v1.26zm.14-1.4h3.668V494.1h-3.668zm6.789 1.232v-1.414h1.414V499zM521.84 516.168v-1.4h1.274v-6.188h-1.274v-1.414h3.962v1.414h-1.288v6.188h1.288v1.4zm8.194 0v-1.26h-1.26V511.1H527.5v-1.4h1.274v-2.534h1.4v2.534h3.836v1.4h-3.836v3.668h3.696v-1.274h1.414v1.414h-1.274v1.26zm9.881 0V509.7h1.414v6.468zm0-7.588v-1.414h1.414v1.414zm3.104 7.588v-1.4h5.082v-1.134h-3.808v-1.274h-1.274v-1.386h1.274V509.7h5.236v1.4h-5.096v1.12h3.808v1.274h1.288v1.414h-1.288v1.26zm11.157-.014v-7.882h1.232v-1.204h4.256v1.204h1.246v1.904h-1.792v-1.19h-3.164v1.68h4.956v5.488h-1.792v-3.598h-3.164v3.598zm8.436 0v-1.904h1.232v-1.204h1.232v-.49h-1.232v-1.19h-1.232v-1.904h1.778v1.204h1.232v1.176h.7v-1.176h1.232v-1.204h1.792v1.904H568.1v1.19h-1.232v.49h1.232v1.204h1.246v1.904h-1.792v-1.19h-1.232v-1.204h-.7v1.204h-1.232v1.19zm8.97 0v-1.19h-1.232v-4.298h1.232v-1.204h4.256v1.204h1.246v1.89h-1.792v-1.19h-3.164v.476h2.478v1.918h-2.478v.49h3.164v-1.218h1.792v1.918h-1.246v1.204zm8.435 0v-1.19h-1.232v-4.298h1.232v-1.204h3.724v-2.394h1.792v7.896h-1.26v1.19zm.546-1.904h3.164v-2.884h-3.164zm7.274 3.01v-.784h.644V516h-1.274v-1.414h1.414v1.274h.63v.756h-.63v.644zm7.317 1.442v-1.26h-1.274v-1.4h1.414v1.26h3.682v-2.394h-3.822v-1.274h-1.274V509.7h1.414v3.794h3.682V509.7h1.414v7.742h-1.274v1.26zm8.203-2.534v-1.26h-1.274v-3.934h1.274V509.7h3.948v1.274h1.288v3.934h-1.288v1.26zm.14-1.4h3.668V511.1h-3.668zm8.063 1.4v-1.26h-1.274V509.7h1.414v5.068h3.668V509.7h1.428v5.208h-1.288v1.26zm11.144 0v-1.26h-1.274v-3.934h1.274V509.7h3.948v1.274h1.288v1.386h-1.428v-1.26h-3.668v3.668h3.668v-1.274h1.428v1.414h-1.288v1.26zm7.779 0v-1.26h-1.274v-3.934h1.274V509.7h3.948v1.274h1.288v3.794h1.274v1.4h-1.414v-1.26h-1.148v1.26zm.14-1.4h3.668V511.1h-3.668zm7.637 1.4V509.7h5.222v1.274h1.288v5.194h-1.428V511.1h-3.668v5.068zm12.417 0v-1.26h-1.274v-3.934h1.274V509.7h3.948v1.274h1.288v1.386h-1.428v-1.26h-3.668v3.668h3.668v-1.274h1.428v1.414h-1.288v1.26zm6.656 0v-9.002h1.414v3.808h1.12V509.7h2.688v1.274h1.288v5.194h-1.428V511.1h-2.408v1.26h-1.26v3.808zm9.203 0v-1.26h-1.274v-3.934h1.274V509.7h3.948v1.274h1.288v3.934h-1.288v1.26zm.14-1.4h3.668V511.1h-3.668zm8.064 1.4v-1.26h-1.274v-3.934h1.274V509.7h3.948v1.274h1.288v3.934h-1.288v1.26zm.14-1.4h3.668V511.1h-3.668zm6.789 1.4v-1.4h5.082v-1.134h-3.808v-1.274h-1.274v-1.386h1.274V509.7h5.236v1.4h-5.096v1.12h3.808v1.274h1.288v1.414h-1.288v1.26zm9.203 0v-1.26h-1.274v-3.934h1.274V509.7h3.948v1.274h1.288v1.386h-1.428v-1.26h-3.668v1.12h2.548v1.414h-2.548v1.134h3.668v-1.288h1.428v1.414h-1.288v1.274zm12.404 0v-1.26h-1.26V511.1h-1.274v-1.4h1.274v-2.534h1.4v2.534h3.836v1.4h-3.836v3.668h3.696v-1.274h1.414v1.414h-1.274v1.26zm6.667 0v-9.002h1.414v3.808h1.12V509.7h2.688v1.274h1.288v5.194h-1.428V511.1h-2.408v1.26h-1.26v3.808zm9.204 0v-1.26h-1.274v-3.934h1.274V509.7h3.948v1.274h1.288v1.386h-1.428v-1.26h-3.668v1.12h2.548v1.414h-2.548v1.134h3.668v-1.288h1.428v1.414h-1.288v1.274zm11.143 0v-1.26h-1.274v-3.934h1.274V509.7h3.948v1.274h1.288v1.386h-1.428v-1.26h-3.668v3.668h3.668v-1.274h1.428v1.414h-1.288v1.26zm7.78 0v-1.26h-1.274v-3.934h1.274V509.7h3.948v1.274h1.288v3.934h-1.288v1.26zm.14-1.4h3.668V511.1h-3.668zm6.789 1.4v-5.194h1.274V509.7h3.948v1.274h1.288v1.386h-1.428v-1.26h-3.668v5.068zm7.779 0V509.7H758v1.274h1.288v5.194h-1.428V511.1h-3.668v5.068zm9.053 0v-1.26h-1.274v-3.934h1.274V509.7h3.948v1.274h1.288v1.386h-1.428v-1.26h-3.668v1.12h2.548v1.414h-2.548v1.134h3.668v-1.288h1.428v1.414h-1.288v1.274zm6.929 0v-5.194h1.274V509.7h3.948v1.274h1.288v1.386h-1.428v-1.26h-3.668v5.068zm11.144 0V509.7h1.414v6.468zm0-7.588v-1.414h1.414v1.414zm2.83 7.588V509.7h5.222v1.274h1.288v5.194h-1.428V511.1h-3.668v5.068zm11.143 0V509.7h1.414v5.068h2.408V509.7h1.4v5.068h2.422V509.7h1.4v5.208h-1.26v1.26h-2.702v-1.26h-1.12v1.26zm10.459 0v-9.002h1.414v3.808h1.12V509.7h2.688v1.274h1.288v5.194h-1.428V511.1h-2.408v1.26h-1.26v3.808zm8.204 0V509.7h1.414v6.468zm0-7.588v-1.414h1.414v1.414zm4.104 7.588v-1.26h-1.274v-3.934h1.274V509.7h3.948v1.274h1.288v1.386h-1.428v-1.26h-3.668v3.668h3.668v-1.274h1.428v1.414h-1.288v1.26zm6.655 0v-9.002h1.414v3.808h1.12V509.7h2.688v1.274h1.288v5.194h-1.428V511.1h-2.408v1.26h-1.26v3.808zm12.418 2.534v-1.26h-1.274v-1.4h1.414v1.26h3.682v-2.394h-3.822v-1.274h-1.274V509.7h1.414v3.794h3.682V509.7h1.414v7.742h-1.274v1.26zm8.203-2.534v-1.26h-1.274v-3.934h1.274V509.7h3.948v1.274h1.288v3.934h-1.288v1.26zm.14-1.4h3.668V511.1h-3.668zm8.063 1.4v-1.26h-1.274V509.7h1.414v5.068h3.668V509.7h1.428v5.208h-1.288v1.26zm9.869 0V509.7h1.414v5.068h2.408V509.7h1.4v5.068h2.422V509.7h1.4v5.208h-1.26v1.26h-2.702v-1.26h-1.12v1.26zm11.583 0v-1.26h-1.274v-3.934h1.274V509.7h3.948v1.274h1.288v3.794h1.274v1.4h-1.414v-1.26h-1.148v1.26zm.14-1.4h3.668V511.1h-3.668zm7.637 1.4V509.7h5.222v1.274h1.288v5.194h-1.428V511.1h-3.668v5.068zm10.176 0v-1.26h-1.26V511.1h-1.274v-1.4h1.274v-2.534h1.4v2.534h3.836v1.4h-3.836v3.668h3.696v-1.274h1.414v1.414h-1.274v1.26zm12.415 0v-1.26h-1.26V511.1h-1.274v-1.4h1.274v-2.534h1.4v2.534h3.836v1.4h-3.836v3.668h3.696v-1.274h1.414v1.414h-1.274v1.26zm7.791 0v-1.26h-1.274v-3.934h1.274V509.7h3.948v1.274h1.288v3.934h-1.288v1.26zm.14-1.4h3.668V511.1h-3.668zm11.004 1.4v-1.26h-1.274v-3.934h1.274V509.7h3.822v-2.534h1.414v7.742h-1.288v1.26zm.14-1.4h3.668V511.1h-3.668zm6.789 1.4V509.7h1.414v6.468zm0-7.588v-1.414h1.414v1.414zm3.103 7.588v-1.4h5.082v-1.134h-3.808v-1.274h-1.274v-1.386h1.274V509.7h5.236v1.4h-5.096v1.12h3.808v1.274h1.288v1.414h-1.288v1.26zm8.203 2.464v-7.658h1.274V509.7h3.948v1.274h1.288v3.934h-1.288v1.26h-3.808v2.464zm1.414-3.864h3.668V511.1h-3.668zm6.79 1.4v-9.002h1.414v9.002zm4.104 0v-1.26h-1.274v-3.934h1.274V509.7h3.948v1.274h1.288v3.794h1.274v1.4h-1.414v-1.26h-1.148v1.26zm.14-1.4h3.668V511.1h-3.668zm8.35 3.934v-1.26h-1.274v-1.4h1.414v1.26h3.682v-2.394h-3.822v-1.274h-1.274V509.7h1.414v3.794h3.682V509.7h1.414v7.742h-1.274v1.26zm-437.537 14.466v-1.26h-1.26V528.1h-1.274v-1.4h1.274v-2.534h1.4v2.534h3.836v1.4h-3.836v3.668h3.696v-1.274h1.414v1.414h-1.274v1.26zm6.667 0v-9.002h1.414v3.808h1.12V526.7h2.688v1.274h1.288v5.194h-1.428V528.1h-2.408v1.26h-1.26v3.808zm9.204 0v-1.26h-1.274v-3.934h1.274V526.7h3.948v1.274h1.288v3.794h1.274v1.4h-1.414v-1.26h-1.148v1.26zm.14-1.4h3.668V528.1h-3.668zm9.05 1.4v-1.26h-1.26V528.1h-1.274v-1.4h1.274v-2.534h1.4v2.534h3.836v1.4h-3.836v3.668h3.696v-1.274h1.414v1.414h-1.274v1.26zm9.743 2.464v-7.658h1.274V526.7h3.948v1.274h1.288v3.934H564.4v1.26h-3.808v2.464zm1.414-3.864h3.668V528.1h-3.668zm8.063 1.4v-1.26h-1.274v-3.934h1.274V526.7h3.948v1.274h1.288v3.794h1.274v1.4h-1.414v-1.26h-1.148Ev1.26zm.14-1.4h3.668V528.1h-3.668zm7.637 1.4V526.7h5.222v1.274h1.288v5.194h-1.428V528.1h-3.668v5.068zm9.053 0v-1.26h-1.274v-3.934h1.274V526.7h3.948v1.274h1.288v1.386h-1.428v-1.26h-3.668v1.12h2.548v1.414h-2.548v1.134h3.668v-1.288h1.428v1.414h-1.288v1.274zm6.929 0v-9.002h1.414v9.002z"/><path stroke="var(--color-secondary)" stroke-dasharray="19 19" stroke-width="2" d="M308.5 687.5c14.667-58.667 75.1-176 199.5-176"/><path fill="var(--color-secondary)" d="M37 708.812A2.81 2.81 0 0 1 39.813 706h24.374A2.81 2.81 0 0 1 67 708.812v24.376A2.81 2.81 0 0 1 64.188 736H39.811A2.81 2.81 0 0 1 37 733.188z"/><path fill="var(--color-background)" d="M58.563 732.438q-1.22 0-2.138-.488a3.53 3.53 0 0 1-1.406-1.369q-.488-.9-.488-2.081v-2.812q0-1.2.488-2.082a3.53 3.53 0 0 1 1.406-1.369q.919-.487 2.138-.487t2.118.487a3.4 3.4 0 0 1 1.407 1.369q.506.881.506 2.082v1.818H56.18v.994q0 1.218.619 1.875.619.638 1.763.638.974 0 1.575-.338.6-.357.73-1.05h1.688q-.168 1.293-1.275 2.063-1.087.75-2.718.75m2.38-6.057v-.693q0-1.22-.618-1.876-.6-.656-1.763-.656-1.144 0-1.762.656-.618.657-.619 1.876v.543h4.894z"/><path fill="var(--color-background)" d="m41.135 732.25 1.23-21.9h3.15l-1.11 15.3q-.03.51-.09 1.26-.06.72-.15 1.47t-.15 1.32q.15-.57.3-1.32.18-.75.36-1.47.21-.75.36-1.26l4.23-15.3h3.24l-.75 15.3q-.03.51-.06 1.26l-.06 1.47q-.03.75-.06 1.32.12-.57.27-1.32t.3-1.47l.3-1.26 3.75-15.3h3.21l-5.85 21.9h-4.14l.78-15.36q.03-.57.09-1.32l.12-1.53q.06-.78.09-1.32-.12.54-.3 1.32-.18.75-.36 1.53-.18.75-.33 1.32l-4.2 15.36z"/><path fill="var(--color-secondary)" d="M59.5 732.438q-1.218 0-2.138-.488a3.53 3.53 0 0 1-1.406-1.369q-.487-.9-.487-2.081v-2.812q0-1.2.487-2.082a3.53 3.53 0 0 1 1.406-1.369q.919-.487 2.138-.487 1.22 0 2.119.487a3.4 3.4 0 0 1 1.406 1.369q.506.881.506 2.082v1.818H57.12v.994q0 1.218.618 1.875.619.638 1.763.638.975 0 1.575-.338.6-.357.731-1.05h1.688q-.17 1.293-1.275 2.063-1.088.75-2.719.75m2.381-6.057v-.693q0-1.22-.618-1.876-.6-.656-1.763-.656-1.144 0-1.763.656-.618.657-.618 1.876v.543h4.894z"/><path fill="var(--color-secondary)" d="M471.105 722.12c-1.092 2.239-2.586 5.271-3.328 6.638-.719 1.245-1.315 1.079-1.788.034-1.64-3.849-5.008-10.598-6.593-14.382-.293-.696-.514-1.144-.722-1.32q-.316-.26-1.309-.314-.366-.04-.365-.184v-.528l.061-.052c1.078-.006 6.301 0 6.301 0l.059.052v.503q0 .206-.262.204l-.658.036c-.566.034-.848.19-.848.506 0 .156.061.382.193.696 1.263 3.067 5.621 12.194 5.621 12.194l.159.053 2.813-5.575-.563-1.236-1.934-3.783s-.371-.758-.499-1.011c-.85-1.672-.831-1.759-1.688-1.874-.242-.026-.366-.058-.366-.173v-.542l.07-.052h5.008l.132.043v.522c0 .122-.089.174-.265.174l-.36.055c-.924.071-.771.441-.158 1.648l1.845 3.769 2.051-4.061c.342-.742.272-.929.13-1.098-.082-.097-.356-.255-.947-.278l-.235-.024a.27.27 0 0 1-.169-.059.17.17 0 0 1-.078-.15v-.495l.071-.052c1.455-.009 4.717 0 4.717 0l.069.052v.506c0 .14-.069.206-.226.206-.753.035-.912.11-1.193.509-.14.215-.438.682-.754 1.204l-2.684 4.952-.076.157 3.257 6.62.199.055 5.128-12.097c.18-.489.151-.837-.074-1.037-.23-.2-.404-.317-1-.342l-.49-.019a.3.3 0 0 1-.178-.052c-.05-.034-.084-.087-.084-.138v-.505l.069-.052h5.788l.048.052v.506c0 .138-.086.209-.244.209-.756.035-1.315.209-1.683.488-.367.295-.65.714-.859 1.236 0 0-4.717 10.73-6.33 14.301-.613 1.167-1.229 1.063-1.754-.036-.666-1.357-2.068-4.388-3.087-6.618zM80.228 728.336v-2.52H77.68v-2.828h2.828v2.548h7.336v-4.816h-7.616v-2.52H77.68v-5.32h2.548v-2.548h7.896v2.548H90.7v2.8h-2.856v-2.52h-7.336v4.788h7.616v2.492H90.7v5.376h-2.576v2.52zm18.085 0v-2.52h-2.52V718.2h-2.548v-2.8h2.548v-5.068h2.8v5.068h7.672v2.8h-7.672v7.336h7.392v-2.548h2.828v2.828h-2.548v2.52zm15.862 0v-2.52h-2.548v-7.868h2.548V715.4h7.896v2.548h2.576v7.588h2.548v2.8h-2.828v-2.52h-2.296v2.52zm.28-2.8h7.336V718.2h-7.336zm16.401 2.8v-10.388h2.548V715.4h7.896v2.548h2.576v2.772h-2.856v-2.52h-7.336v10.136zm18.387 0v-2.52h-2.548v-7.868h2.548V715.4h7.644v-5.068h2.828v15.484h-2.576v2.52zm.28-2.8h7.336V718.2h-7.336zm15.859 2.8v-2.52h-2.548v-7.868h2.548V715.4h7.896v2.548h2.576v2.772h-2.856v-2.52h-7.336v2.24h5.096v2.828h-5.096v2.268h7.336v-2.576h2.856v2.828h-2.576v2.548zm14.138 0V715.4h2.828v10.136h4.816V715.4h2.8v10.136h4.844V715.4h2.8v10.416h-2.52v2.52h-5.404v-2.52h-2.24v2.52zm32.698 0v-2.52h-2.52v-5.096h-2.548v-10.388h2.828v10.108h2.52v5.096h2.296v-5.096h2.52v-10.108h2.856v10.388h-2.576v5.096h-2.52v2.52zm13.046 0v-2.52h-2.548v-7.868h2.548V715.4h7.896v2.548h2.576v7.588h2.548v2.8h-2.828v-2.52h-2.296v2.52zm.28-2.8h7.336V718.2h-7.336zm15.553 2.8v-18.004h2.828v18.004zm6.487 0v-18.004h2.828v18.004zm8.488 0v-2.52h-2.548v-7.868h2.548V715.4h7.896v2.548h2.576v2.772h-2.856v-2.52h-7.336v2.24h5.096v2.828h-5.096v2.268h7.336v-2.576h2.856v2.828h-2.576v2.548zm16.687 5.068v-2.52h-2.548v-2.8h2.828v2.52h7.364v-4.788h-7.644v-2.548h-2.548V715.4h2.828v7.588h7.364V715.4h2.828v15.484h-2.548v2.52zM296.44 728.288V717.2h2.424v8.688h4.128V717.2h2.4v8.688h4.152V717.2h2.4v8.928h-2.16v2.16h-4.632v-2.16h-1.92v2.16zm17.678 0V717.2h2.424v11.088zm0-13.008v-2.424h2.424v2.424zm4.601 13.008v-15.432h2.424v8.664h1.92v-2.136h4.368V717.2h2.448v2.4h-2.208v2.16h-4.368v1.944h4.368v2.184h2.208v2.4h-2.448v-2.16h-4.368v-2.184h-1.92v4.344zm13.342 0V717.2h2.424v11.088zm0-13.008v-2.424h2.424v2.424zm4.601 13.008v-2.4h8.712v-1.944h-6.528v-2.184h-2.184v-2.376h2.184V717.2h8.976v2.4h-8.736v1.92h6.528v2.184h2.208v2.424h-2.208v2.16zm21.771 3.552v-4.416h-2.16v-4.32h-2.184v-4.584h2.184v-4.368h2.16v-4.32h2.448v4.56h-2.208v4.368h-2.16v4.104h2.16v4.392h2.208v4.584zm6.816-3.552v-2.16h-2.184V715.04h2.184v-2.184h6.768v2.184h2.208v2.4h-2.448v-2.16h-6.288v4.104h6.528v2.136h2.208v4.608h-2.208v2.16zm.24-2.4h6.288v-4.128h-6.288zm10.919 5.952v-4.584h2.184v-4.392h2.184v-4.104h-2.184v-4.368h-2.184v-4.56h2.424v4.32h2.184v4.368h2.184v4.584h-2.184v4.32h-2.184v4.416zm9.696-5.784v-2.424h2.424v2.424zm0-4.272v-2.4h2.424v2.4zM90.096 821.246v-1.845H88.23v-2.071h2.07v1.866h5.371v-3.526h-5.576v-1.845H88.23v-3.895h1.865v-1.866h5.781v1.866h1.886v2.05h-2.09v-1.845H90.3v3.505h5.575v1.825h1.886v3.936h-1.886v1.845zm12.174 0v-1.845h-1.845v-5.576H98.56v-2.05h1.865v-3.711h2.05v3.711h5.617v2.05h-5.617v5.371h5.412v-1.866h2.071v2.071h-1.866v1.845zm10.547 0v-1.845h-1.865v-5.761h1.865v-1.865h5.781v1.865h1.886v5.556h1.866v2.05h-2.071v-1.845h-1.681v1.845zm.205-2.05h5.371v-5.371h-5.371zm10.942 2.05v-7.606h1.866v-1.865h5.781v1.865h1.886v2.03h-2.091v-1.845h-5.371v7.421zm12.396 0v-1.845h-1.866v-5.761h1.866v-1.865h5.596v-3.711h2.071v11.337h-1.886v1.845zm.205-2.05h5.371v-5.371h-5.371zm10.545 2.05v-1.845h-1.865v-5.761h1.865v-1.865h5.781v1.865h1.886v2.03h-2.091v-1.845h-5.371v1.64h3.731v2.07h-3.731v1.661h5.371v-1.886h2.091v2.07h-1.886v1.866zm9.286 0v-9.471h2.07v7.421h3.526v-7.421h2.05v7.421h3.547v-7.421h2.05v7.626h-1.845v1.845h-3.957v-1.845h-1.64v1.845zm21.807 0v-1.845h-1.845v-3.731h-1.865v-7.606h2.07v7.401h1.845v3.731h1.681v-3.731h1.845v-7.401h2.091v7.606h-1.886v3.731h-1.845v1.845zm8.485 0v-1.845h-1.865v-5.761h1.865v-1.865h5.781v1.865h1.886v5.556h1.866v2.05h-2.071v-1.845h-1.681v1.845zm.205-2.05h5.371v-5.371h-5.371zm10.322 2.05v-13.182h2.07v13.182zm3.683 0v-13.182h2.071v13.182zm5.149 0v-1.845h-1.866v-5.761h1.866v-1.865h5.781v1.865h1.886v2.03h-2.091v-1.845h-5.371v1.64h3.731v2.07h-3.731v1.661h5.371v-1.886h2.091v2.07h-1.886v1.866zm11.15 3.711v-1.845h-1.865v-2.05h2.07v1.845h5.392v-3.506h-5.597v-1.866h-1.865v-5.76h2.07v5.555h5.392v-5.555h2.07v11.337h-1.865v1.845zm14.394-3.711v-1.845h-1.865v-9.471h1.865v-1.866h5.781v1.866h1.886v2.05h-2.091v-1.845h-5.371v3.505h3.731v2.03h-3.731v3.526h5.371v-1.866h2.091v2.071h-1.886v1.845zm9.285 0v-2.05h1.866v-1.866h1.845v-1.66h-1.845v-1.845h-1.866v-2.05h2.071v1.865h1.845v1.825h1.681v-1.825h1.845v-1.865h2.091v2.05h-1.886v1.845h-1.845v1.66h1.845v1.866h1.886v2.05h-2.091v-1.845h-1.845v-1.866h-1.681v1.866h-1.845v1.845zm11.151 3.608V813.64h1.866v-1.865h5.781v1.865h1.886v5.761h-1.886v1.845h-5.576v3.608zm2.071-5.658h5.371v-5.371h-5.371zm10.945 2.05v-1.845h-1.865v-5.761h1.865v-1.865h5.781v1.865h1.886v5.556h1.866v2.05h-2.071v-1.845h-1.681v1.845zm.205-2.05h5.371v-5.371h-5.371zm10.322 2.05v-9.471h7.646v1.865h1.886v7.606h-2.091v-7.421h-5.371v7.421zm12.616 0v-1.845h-1.866v-5.761h1.866v-1.865h5.596v-3.711h2.071v11.337h-1.886v1.845zm.205-2.05h5.371v-5.371h-5.371zm10.545 2.05v-1.845h-1.866v-5.761h1.866v-1.865h5.781v1.865h1.886v2.03h-2.091v-1.845h-5.371v1.64h3.731v2.07h-3.731v1.661h5.371v-1.886h2.091v2.07h-1.886v1.866zm11.151 0v-1.845h-1.866v-5.761h1.866v-1.865h5.596v-3.711h2.071v11.337h-1.886v1.845zm.205-2.05h5.371v-5.371h-5.371zm12.323 2.05v-13.182h7.646v1.866h1.886v2.05h-2.091v-1.845h-5.371v3.505h3.731v2.03h-3.731v5.576zm10.974 0v-1.845h-1.865v-5.761h1.865v-1.865h5.781v1.865h1.886v5.556h1.866v2.05h-2.071v-1.845h-1.681v1.845zm.205-2.05h5.371v-5.371h-5.371zm10.321 2.05v-9.471h7.647v1.865h1.886v7.606h-2.091v-7.421h-5.371v7.421zm12.616 0v-1.845h-1.865v-5.761h1.865v-1.865h5.597v-3.711h2.07v11.337h-1.886v1.845zm.205-2.05h5.371v-5.371h-5.371zm10.546 2.05v-1.845h-1.866v-5.761h1.866v-1.865h5.781v1.865h1.886v5.761h-1.886v1.845zm.205-2.05h5.371v-5.371h-5.371zm9.08 2.05v-9.471h5.801v1.865h1.64v-1.865h3.957v1.865h1.845v7.606h-2.05v-7.421h-3.547v7.421h-2.05v-7.421h-3.526v7.421zm19.963 0v-1.845h-1.866v-11.337h2.071v11.132h1.64v-3.731h1.886v-5.535h2.05v5.535h1.886v3.731h1.66v-11.132h2.05v11.337h-1.845v1.845h-2.07v-1.845h-1.886v-3.731h-1.64v3.731h-1.886v1.845zm12.989 0v-9.471h2.07v9.471zm0-11.111v-2.071h2.07v2.071zm3.683 11.111v-13.182h2.07v7.401h1.64v-1.825h3.731v-1.865h2.091v2.05h-1.886v1.845h-3.731v1.66h3.731v1.866h1.886v2.05h-2.091v-1.845h-3.731v-1.866h-1.64v3.711zm11.151 0v-9.471h2.07v9.471zm0-11.111v-2.071h2.07v2.071zm3.683 11.111v-2.05h7.442v-1.661h-5.576v-1.865h-1.866v-2.03h1.866v-1.865h7.667v2.05h-7.462v1.64h5.576v1.865h1.886v2.071h-1.886v1.845zm11.151-1.907v-2.07h2.07v2.07zm0-3.649v-2.05h2.07v2.05zM225.777 849.183c-1.647.437-3.317 1.759-4.095 3.238-.395.762-3.317 9.716-3.599 11.039-.18.852-.056 2.286.271 3.239.97 2.768 3.486 4.493 6.565 4.493 2.132 0 3.509-.515 5.19-1.961 1.636-1.401 3.012-1.939 4.681-1.804 1.512.112 2.527.572 3.949 1.804 2.008 1.749 4.332 2.253 6.735 1.457a6.57 6.57 0 0 0 3.813-3.239c.598-1.188.767-2.039.699-3.373-.045-1.064-.124-1.345-1.579-5.771-.835-2.555-1.636-4.92-1.76-5.245-.553-1.378-1.658-2.589-3.035-3.306-1.274-.672-1.771-.751-4.636-.751-1.535 0-2.493.045-2.437.101.068.056.699.437 1.41.852.711.403 1.388.84 1.5.975.113.134.192.414.192.672 0 .538-.124.661-1.748 1.771l-1.241.84 2.222.056c2.144.056 2.223.067 2.505.325.349.325.304.213 1.996 5.391 1.467 4.505 1.523 4.774 1.004 5.323-.688.728-1.376.639-2.425-.28a18 18 0 0 0-1.343-1.054c-4.162-2.723-9.634-2.387-13.458.83-1.275 1.075-1.354 1.12-2.087 1.12-.383 0-.812-.078-1.004-.168-.383-.202-.778-.773-.778-1.143 0-.134.677-2.376 1.511-4.976 1.196-3.754 1.58-4.785 1.805-5.02.294-.292.316-.292 2.584-.37 1.252-.034 2.481-.123 2.73-.202.553-.168 2.933-1.513 3.226-1.827.237-.257.282-.717.09-1.12-.135-.303-2.222-1.558-3.136-1.894-.699-.258-5.37-.28-6.317-.022m17.824 1.826c.44.448.451.997.011 1.479-.541.606-1.511.426-1.827-.336-.452-1.098.958-1.984 1.816-1.143M288.938 756.01a.54.54 0 0 0-.588.294.5.5 0 0 0-.052.227v12.102l-4.384-4.356a.54.54 0 0 0-.431-.152.55.55 0 0 0-.394.232.52.52 0 0 0-.089.296v12.497a2.963 2.963 0 0 0 .876 2.104l5.707 5.675a3 3 0 0 0 2.116.873h4.175c.794 0 1.552-.313 2.114-.871l5.706-5.677a2.97 2.97 0 0 0 .874-2.104v-4.498a2.96 2.96 0 0 0-.875-2.103l-14.48-14.394a.54.54 0 0 0-.275-.145m1.903 15.524c.238 0 .467.094.635.261l2.31 2.297 2.305-2.297a.88.88 0 0 1 .635-.263.9.9 0 0 1 .634.263l1.65 1.64a.9.9 0 0 1 .265.631v1.746a.9.9 0 0 1-.262.631l-4.6 4.594a.903.903 0 0 1-1.274 0l-4.585-4.594a.88.88 0 0 1-.261-.629v-1.748a.87.87 0 0 1 .263-.628l1.65-1.642a.9.9 0 0 1 .635-.262M291.938 845.01a.54.54 0 0 0-.588.294.5.5 0 0 0-.052.227v12.102l-4.384-4.356a.54.54 0 0 0-.431-.152.55.55 0 0 0-.394.232.52.52 0 0 0-.089.296v12.497a2.963 2.963 0 0 0 .876 2.104l5.707 5.675a3 3 0 0 0 2.116.873h4.175c.794 0 1.552-.313 2.114-.871l5.706-5.677a2.97 2.97 0 0 0 .874-2.104v-4.498a2.96 2.96 0 0 0-.875-2.103l-14.48-14.394a.54.54 0 0 0-.275-.145m1.903 15.524c.238 0 .467.094.635.261l2.31 2.297 2.305-2.297a.88.88 0 0 1 .635-.263.9.9 0 0 1 .634.263l1.65 1.64a.9.9 0 0 1 .265.631v1.746a.9.9 0 0 1-.262.631l-4.6 4.594a.903.903 0 0 1-1.274 0l-4.585-4.594a.88.88 0 0 1-.261-.629v-1.748a.87.87 0 0 1 .263-.628l1.65-1.642a.9.9 0 0 1 .635-.262M252.516 763.369l-2.906-2.834a1.95 1.95 0 0 0-2.736 0l-11.224 11.013-4.443-4.282a1.94 1.94 0 0 0-2.734.006l-2.907 2.887a1.92 1.92 0 0 0 0 2.72l8.673 8.661a1.94 1.94 0 0 0 1.37.564 1.94 1.94 0 0 0 1.371-.564l15.542-15.444a1.92 1.92 0 0 0 .417-2.102 1.9 1.9 0 0 0-.423-.625m-16.912 16.813-8.673-8.662 2.906-2.887.01.01 5.128 4.943a.973.973 0 0 0 1.355 0l11.921-11.689 2.899 2.839z"/><path stroke="var(--color-secondary)" stroke-dasharray="7 8" stroke-width="2" d="M265 840v40"/><path stroke="var(--color-secondary)" d="M.5.5h1201v903H.5z"/><rect width="44" height="39" x="398.5" y="701.5" stroke="var(--color-secondary)" rx="6.5"/><rect width="44" height="39" x="448.5" y="701.5" stroke="var(--color-secondary)" rx="6.5"/><path fill="var(--color-secondary)" d="M421.475 705c-8.087 0-14.725 2.863-15.449 6.52l8.622 1.613c.702-.219 1.501-.313 2.325-.313l4.044-2.406c-.048-.602.315-1.227 1.138-1.733 1.162-.745 2.98-1.154 4.82-1.154a11.2 11.2 0 0 1 3.633.528c2.712.915 3.318 2.672 1.38 3.923-1.234.793-3.221 1.202-5.183 1.155l-5.328 1.899c-.048.385-.314.746-.823 1.084-1.429.914-4.215 1.129-6.2.457-.872-.289-1.453-.723-1.696-1.155l-6.151-1.179c.557.866 1.453 1.66 2.616 2.358-2.011 1.155-3.223 2.597-3.223 4.16 0 1.54 1.162 2.96 3.125 4.114-1.963 1.134-3.125 2.553-3.125 4.092 0 3.777 6.927 6.833 15.5 6.833 8.55 0 15.5-3.056 15.5-6.833 0-1.54-1.163-2.959-3.125-4.091 1.962-1.153 3.125-2.573 3.125-4.112 0-1.565-1.212-3.031-3.245-4.186 2.01-1.227 3.22-2.743 3.22-4.379 0-3.969-6.95-7.194-15.5-7.194zm5.522 3.417c-1.259.023-2.469.289-3.244.793-1.332.866-.921 2.045.919 2.672 1.841.624 4.384.432 5.716-.434 1.333-.866.921-2.046-.92-2.646a8.3 8.3 0 0 0-2.471-.362zm.074.408c1.791 0 3.22.674 3.22 1.492s-1.429 1.491-3.22 1.491c-1.793 0-3.221-.673-3.221-1.491s1.428-1.492 3.221-1.492m-10.101 4.451c-.387.025-.749.049-1.113.097l2.205.409c.319.059.61.147.856.258.245.111.441.243.576.389a.7.7 0 0 1 .209.461.68.68 0 0 1-.191.462 1.7 1.7 0 0 1-.561.394 3.7 3.7 0 0 1-.845.265 5.4 5.4 0 0 1-1.002.096 5.4 5.4 0 0 1-1.006-.087l-2.154-.411c.243.218.581.411 1.041.578 1.55.529 3.73.361 4.844-.36 1.114-.722.775-1.732-.775-2.238-.629-.216-1.38-.313-2.083-.313zm15.428 3.995v2.236c0 2.647-4.892 4.789-10.898 4.789-6.031 0-10.898-2.143-10.898-4.789v-2.213c2.785 1.275 6.635 2.07 10.873 2.07 4.263 0 8.138-.795 10.947-2.093zm0 8.324v2.117c0 2.647-4.892 4.787-10.898 4.787-6.031 0-10.898-2.14-10.898-4.787v-2.117c2.81 1.226 6.635 1.973 10.898 1.973 4.262 0 8.112-.747 10.898-1.973"/><rect width="44" height="39" x="271.5" y="751.5" stroke="var(--color-secondary)" rx="6.5"/><rect width="44" height="39" x="216.5" y="751.5" stroke="var(--color-secondary)" rx="6.5"/><rect width="39" height="39" x="214.5" y="840.5" stroke="var(--color-secondary)" rx="6.5"/><rect width="39" height="39" x="276.5" y="840.5" stroke="var(--color-secondary)" rx="6.5"/></svg>
